<svg width="121" height="40" viewBox="0 0 121 40" fill="none" xmlns="http://www.w3.org/2000/svg">
<g id="Badges" clip-path="url(#clip0_4655_1793)">
<g id="Group">
<g id="Group_2">
<g id="Group_3">
<path id="Vector" d="M111.084 7.92969e-06H10.4834C10.1167 7.92969e-06 9.75441 7.92975e-06 9.38868 0.00200793C9.08253 0.00400793 8.77882 0.00981793 8.46973 0.0147079C7.79824 0.0226097 7.12834 0.0816842 6.46583 0.191418C5.80425 0.303541 5.1634 0.514924 4.56495 0.818418C3.96723 1.12448 3.42108 1.52218 2.9463 1.99708C2.46903 2.47064 2.07119 3.01802 1.76808 3.61817C1.46413 4.21712 1.25337 4.85895 1.14308 5.52149C1.03174 6.18319 0.971829 6.85253 0.96388 7.52349C0.9546 7.83009 0.95362 8.13771 0.94873 8.44435V31.5586C0.95362 31.8691 0.9546 32.1699 0.96388 32.4805C0.971831 33.1514 1.03174 33.8207 1.14308 34.4824C1.25307 35.1453 1.46384 35.7875 1.76808 36.3867C2.07106 36.9849 2.46895 37.5301 2.9463 38.001C3.41928 38.478 3.96578 38.876 4.56495 39.1797C5.1634 39.484 5.80418 39.6967 6.46583 39.8105C7.12845 39.9194 7.79829 39.9785 8.46973 39.9873C8.77882 39.9941 9.08253 39.998 9.38868 39.998C9.7544 40 10.1167 40 10.4834 40H111.084C111.443 40 111.808 40 112.168 39.998C112.472 39.998 112.785 39.9941 113.089 39.9873C113.76 39.9789 114.428 39.9198 115.089 39.8105C115.753 39.6959 116.396 39.4833 116.998 39.1797C117.596 38.8758 118.142 38.4779 118.615 38.001C119.091 37.5282 119.49 36.9835 119.796 36.3867C120.098 35.7871 120.307 35.145 120.415 34.4824C120.527 33.8206 120.589 33.1515 120.601 32.4805C120.605 32.1699 120.605 31.8691 120.605 31.5586C120.613 31.1953 120.613 30.834 120.613 30.4648V9.53614C120.613 9.16993 120.613 8.80665 120.605 8.44435C120.605 8.13771 120.605 7.83009 120.601 7.52345C120.589 6.85243 120.527 6.18324 120.415 5.52145C120.307 4.85929 120.098 4.21751 119.796 3.61813C119.179 2.4152 118.2 1.43603 116.998 0.818328C116.396 0.515575 115.753 0.304248 115.089 0.191328C114.428 0.0811107 113.76 0.0220157 113.089 0.0145679C112.785 0.00968793 112.472 0.00382793 112.168 0.00187793C111.808 -0.00012207 111.443 -0.00012207 111.084 -0.00012207V7.92969e-06Z" fill="#A6A6A6"/>
<path id="Vector_2" d="M9.39357 39.125C9.08889 39.125 8.79157 39.1211 8.48928 39.1143C7.86306 39.1061 7.2383 39.0516 6.62014 38.9512C6.04373 38.8519 5.48534 38.6673 4.9634 38.4033C4.44624 38.1415 3.97455 37.7983 3.5664 37.3867C3.15234 36.98 2.80761 36.5082 2.54589 35.9902C2.28128 35.4688 2.09815 34.9099 2.00289 34.333C1.90001 33.7131 1.84435 33.0863 1.83639 32.458C1.83005 32.2471 1.82175 31.5449 1.82175 31.5449V8.44434C1.82175 8.44434 1.83059 7.75293 1.83644 7.5498C1.84406 6.92248 1.8994 6.29665 2.00197 5.67773C2.09741 5.09925 2.28067 4.53875 2.54543 4.01563C2.80619 3.49794 3.149 3.02586 3.56057 2.61768C3.97167 2.20562 4.44487 1.8606 4.96291 1.59521C5.48365 1.33209 6.04098 1.14873 6.61623 1.05127C7.23642 0.949836 7.86335 0.894996 8.49174 0.88721L9.39406 0.875H112.163L113.076 0.8877C113.698 0.895099 114.32 0.94945 114.934 1.05029C115.515 1.14898 116.078 1.33362 116.605 1.59814C117.643 2.13299 118.487 2.97916 119.02 4.01807C119.281 4.53758 119.461 5.09351 119.555 5.66699C119.659 6.29099 119.717 6.92174 119.729 7.5542C119.732 7.8374 119.732 8.1416 119.732 8.44434C119.74 8.81934 119.74 9.17627 119.74 9.53613V30.4648C119.74 30.8281 119.74 31.1826 119.732 31.54C119.732 31.8652 119.732 32.1631 119.728 32.4697C119.716 33.0909 119.659 33.7104 119.557 34.3232C119.464 34.9043 119.282 35.4675 119.017 35.9932C118.754 36.5056 118.411 36.9733 118.002 37.3789C117.593 37.7927 117.12 38.1379 116.602 38.4014C116.077 38.6674 115.515 38.8527 114.934 38.9512C114.316 39.0522 113.691 39.1067 113.065 39.1143C112.772 39.1211 112.465 39.125 112.168 39.125L111.084 39.127L9.39357 39.125Z" fill="black"/>
</g>
<g id="&#60;Group&#62;">
<g id="&#60;Group&#62;_2">
<g id="&#60;Group&#62;_3">
<path id="&#60;Path&#62;" d="M25.7176 20.3007C25.7284 19.466 25.9501 18.6477 26.3621 17.9217C26.7741 17.1957 27.3631 16.5858 28.0742 16.1486C27.6224 15.5035 27.0265 14.9725 26.3337 14.598C25.6408 14.2234 24.8702 14.0156 24.083 13.991C22.4038 13.8147 20.7758 14.9958 19.9201 14.9958C19.0478 14.9958 17.7303 14.0085 16.3116 14.0376C15.3939 14.0673 14.4996 14.3341 13.7157 14.8122C12.9318 15.2903 12.2851 15.9632 11.8387 16.7655C9.90468 20.1139 11.3473 25.035 13.1999 27.7416C14.1268 29.0669 15.2101 30.5474 16.6275 30.4949C18.0146 30.4374 18.5326 29.6104 20.2069 29.6104C21.8657 29.6104 22.3517 30.4949 23.7979 30.4615C25.2863 30.4374 26.224 29.1303 27.1184 27.7924C27.7844 26.848 28.2969 25.8043 28.6368 24.6999C27.7721 24.3341 27.0342 23.722 26.5151 22.9397C25.996 22.1574 25.7186 21.2396 25.7176 20.3007Z" fill="white"/>
<path id="&#60;Path&#62;_2" d="M22.986 12.211C23.7975 11.2367 24.1973 9.98457 24.1005 8.72034C22.8607 8.85056 21.7154 9.44312 20.8929 10.3799C20.4908 10.8376 20.1828 11.37 19.9865 11.9468C19.7903 12.5236 19.7096 13.1334 19.7492 13.7413C20.3693 13.7477 20.9828 13.6133 21.5435 13.3482C22.1042 13.0831 22.5974 12.6943 22.986 12.211Z" fill="white"/>
</g>
</g>
<g id="Group_4">
<path id="Vector_3" d="M43.251 27.1397H38.5176L37.3809 30.4961H35.376L39.8594 18.0781H41.9424L46.4258 30.4961H44.3867L43.251 27.1397ZM39.0078 25.5908H42.7598L40.9102 20.1436H40.8584L39.0078 25.5908Z" fill="white"/>
<path id="Vector_4" d="M56.1084 25.9698C56.1084 28.7833 54.6025 30.5909 52.3301 30.5909C51.7544 30.621 51.1819 30.4884 50.6781 30.2083C50.1743 29.9281 49.7596 29.5118 49.4814 29.0069H49.4384V33.4913H47.58V21.4425H49.3789V22.9483H49.4131C49.704 22.4459 50.1258 22.0317 50.6334 21.7498C51.141 21.468 51.7156 21.329 52.2959 21.3477C54.5937 21.3477 56.1084 23.1641 56.1084 25.9698ZM54.1982 25.9698C54.1982 24.1368 53.251 22.9317 51.8057 22.9317C50.3857 22.9317 49.4307 24.1622 49.4307 25.9698C49.4307 27.794 50.3857 29.0157 51.8057 29.0157C53.251 29.0157 54.1982 27.8194 54.1982 25.9698Z" fill="white"/>
<path id="Vector_5" d="M66.0732 25.9698C66.0732 28.7833 64.5674 30.5909 62.2949 30.5909C61.7192 30.621 61.1467 30.4884 60.6429 30.2083C60.1392 29.9281 59.7244 29.5118 59.4463 29.0069H59.4033V33.4913H57.5449V21.4425H59.3437V22.9483H59.3779C59.6688 22.4459 60.0905 22.0317 60.5982 21.7498C61.1058 21.468 61.6804 21.329 62.2607 21.3477C64.5586 21.3477 66.0732 23.1641 66.0732 25.9698ZM64.1631 25.9698C64.1631 24.1368 63.2158 22.9317 61.7705 22.9317C60.3505 22.9317 59.3955 24.1622 59.3955 25.9698C59.3955 27.794 60.3505 29.0157 61.7705 29.0157C63.2158 29.0157 64.1631 27.8194 64.1631 25.9698H64.1631Z" fill="white"/>
<path id="Vector_6" d="M72.6592 27.0362C72.7969 28.2676 73.9932 29.0762 75.628 29.0762C77.1944 29.0762 78.3213 28.2676 78.3213 27.1572C78.3213 26.1934 77.6416 25.6162 76.0323 25.2207L74.4229 24.833C72.1426 24.2822 71.084 23.2158 71.084 21.4854C71.084 19.3428 72.9512 17.8711 75.6026 17.8711C78.2266 17.8711 80.0254 19.3428 80.086 21.4854H78.21C78.0977 20.2461 77.0732 19.4981 75.5762 19.4981C74.0791 19.4981 73.0547 20.2549 73.0547 21.3565C73.0547 22.2344 73.709 22.751 75.3096 23.1465L76.6777 23.4824C79.2256 24.0849 80.2842 25.1084 80.2842 26.9248C80.2842 29.248 78.4336 30.7031 75.4902 30.7031C72.7363 30.7031 70.877 29.2822 70.7568 27.0361L72.6592 27.0362Z" fill="white"/>
<path id="Vector_7" d="M84.2949 19.2998V21.4424H86.0166V22.9141H84.2949V27.9053C84.2949 28.6807 84.6396 29.042 85.3965 29.042C85.6009 29.0384 85.8049 29.0241 86.0078 28.999V30.4619C85.6675 30.5255 85.3217 30.5543 84.9756 30.5478C83.1426 30.5478 82.4277 29.8593 82.4277 28.1035V22.9141H81.1113V21.4424H82.4277V19.2998H84.2949Z" fill="white"/>
<path id="Vector_8" d="M87.0137 25.9697C87.0137 23.1211 88.6915 21.3311 91.3077 21.3311C93.9327 21.3311 95.6026 23.1211 95.6026 25.9697C95.6026 28.8262 93.9415 30.6084 91.3077 30.6084C88.6748 30.6084 87.0137 28.8262 87.0137 25.9697ZM93.709 25.9697C93.709 24.0156 92.8135 22.8623 91.3077 22.8623C89.8018 22.8623 88.9073 24.0244 88.9073 25.9697C88.9073 27.9316 89.8018 29.0762 91.3077 29.0762C92.8135 29.0762 93.709 27.9316 93.709 25.9697H93.709Z" fill="white"/>
<path id="Vector_9" d="M97.1348 21.4424H98.9072V22.9834H98.9502C99.0702 22.5021 99.3521 22.0768 99.7487 21.7789C100.145 21.481 100.632 21.3287 101.128 21.3476C101.342 21.3469 101.556 21.3702 101.765 21.417V23.1553C101.494 23.0726 101.212 23.0347 100.93 23.043C100.66 23.032 100.391 23.0796 100.141 23.1825C99.8909 23.2854 99.6663 23.4411 99.4823 23.639C99.2983 23.8369 99.1593 24.0723 99.0749 24.3289C98.9905 24.5856 98.9626 24.8575 98.9932 25.126V30.4961H97.1348L97.1348 21.4424Z" fill="white"/>
<path id="Vector_10" d="M110.333 27.8369C110.083 29.4805 108.482 30.6084 106.435 30.6084C103.801 30.6084 102.166 28.8437 102.166 26.0127C102.166 23.1729 103.81 21.3311 106.356 21.3311C108.861 21.3311 110.437 23.0518 110.437 25.7969V26.4336H104.042V26.5459C104.012 26.8791 104.054 27.2148 104.164 27.5306C104.275 27.8464 104.451 28.1352 104.681 28.3778C104.911 28.6203 105.191 28.8111 105.5 28.9374C105.81 29.0637 106.143 29.1226 106.478 29.1103C106.917 29.1515 107.357 29.0498 107.734 28.8203C108.111 28.5909 108.403 28.246 108.568 27.8369L110.333 27.8369ZM104.051 25.1348H108.577C108.594 24.8352 108.548 24.5354 108.444 24.2541C108.339 23.9729 108.177 23.7164 107.969 23.5006C107.76 23.2849 107.509 23.1145 107.232 23.0003C106.955 22.8861 106.656 22.8305 106.356 22.8369C106.054 22.8351 105.754 22.8933 105.474 23.008C105.194 23.1227 104.939 23.2918 104.725 23.5054C104.51 23.7191 104.341 23.973 104.225 24.2527C104.109 24.5323 104.05 24.8321 104.051 25.1348V25.1348Z" fill="white"/>
</g>
</g>
</g>
<g id="&#60;Group&#62;_4">
<g id="Group_5">
<path id="Vector_11" d="M38.7749 8.73101C39.1645 8.70305 39.5555 8.76191 39.9196 8.90335C40.2837 9.04478 40.6119 9.26526 40.8805 9.54889C41.1491 9.83251 41.3514 10.1722 41.4728 10.5435C41.5942 10.9148 41.6317 11.3083 41.5825 11.6959C41.5825 13.6021 40.5523 14.6979 38.7749 14.6979H36.6197V8.73101H38.7749ZM37.5464 13.854H38.6714C38.9498 13.8707 39.2284 13.825 39.487 13.7204C39.7455 13.6158 39.9775 13.4548 40.166 13.2493C40.3545 13.0437 40.4947 12.7987 40.5766 12.5321C40.6585 12.2655 40.6798 11.9839 40.6392 11.708C40.6769 11.4332 40.6533 11.1534 40.5702 10.8887C40.4871 10.6241 40.3465 10.3811 40.1584 10.1771C39.9703 9.97322 39.7395 9.81341 39.4824 9.70917C39.2253 9.60494 38.9484 9.55885 38.6714 9.57422H37.5464V13.854Z" fill="white"/>
<path id="Vector_12" d="M42.6294 12.4444C42.6011 12.1485 42.635 11.8499 42.7288 11.5679C42.8227 11.2858 42.9744 11.0264 43.1744 10.8065C43.3743 10.5865 43.618 10.4107 43.8899 10.2904C44.1617 10.1702 44.4557 10.108 44.753 10.108C45.0502 10.108 45.3442 10.1702 45.6161 10.2904C45.8879 10.4107 46.1316 10.5865 46.3316 10.8065C46.5315 11.0264 46.6833 11.2858 46.7771 11.5679C46.871 11.8499 46.9048 12.1485 46.8765 12.4444C46.9053 12.7406 46.8719 13.0396 46.7783 13.3221C46.6847 13.6047 46.533 13.8645 46.3331 14.0849C46.1331 14.3053 45.8892 14.4814 45.617 14.602C45.3449 14.7225 45.0506 14.7848 44.753 14.7848C44.4553 14.7848 44.161 14.7225 43.8889 14.602C43.6168 14.4814 43.3729 14.3053 43.1729 14.0849C42.9729 13.8645 42.8212 13.6047 42.7276 13.3221C42.634 13.0396 42.6006 12.7406 42.6294 12.4444ZM45.9624 12.4444C45.9624 11.4683 45.5239 10.8975 44.7544 10.8975C43.982 10.8975 43.5474 11.4683 43.5474 12.4444C43.5474 13.4283 43.982 13.9947 44.7544 13.9947C45.524 13.9947 45.9624 13.4244 45.9624 12.4444H45.9624Z" fill="white"/>
<path id="Vector_13" d="M52.522 14.6978H51.6001L50.6695 11.3813H50.5992L49.6724 14.6978H48.7593L47.5181 10.1948H48.4195L49.2261 13.6308H49.2925L50.2183 10.1948H51.0708L51.9966 13.6308H52.0669L52.8697 10.1948H53.7583L52.522 14.6978Z" fill="white"/>
<path id="Vector_14" d="M54.8023 10.1949H55.6577V10.9102H55.7242C55.8368 10.6533 56.0268 10.4379 56.2677 10.2941C56.5086 10.1503 56.7883 10.0852 57.0679 10.1079C57.287 10.0915 57.507 10.1245 57.7116 10.2046C57.9162 10.2847 58.1002 10.4098 58.2498 10.5707C58.3995 10.7315 58.5111 10.924 58.5763 11.1338C58.6415 11.3436 58.6587 11.5654 58.6265 11.7827V14.6977H57.7378V12.0059C57.7378 11.2823 57.4234 10.9224 56.7661 10.9224C56.6174 10.9155 56.4689 10.9408 56.3308 10.9966C56.1928 11.0525 56.0684 11.1375 55.9663 11.2459C55.8642 11.3543 55.7867 11.4834 55.7392 11.6246C55.6916 11.7657 55.6752 11.9154 55.6909 12.0635V14.6978H54.8023L54.8023 10.1949Z" fill="white"/>
<path id="Vector_15" d="M60.0425 8.43701H60.9312V14.6978H60.0425V8.43701Z" fill="white"/>
<path id="Vector_16" d="M62.1665 12.4444C62.1382 12.1484 62.1721 11.8499 62.266 11.5678C62.3598 11.2857 62.5116 11.0263 62.7116 10.8064C62.9115 10.5864 63.1553 10.4106 63.4271 10.2903C63.699 10.17 63.993 10.1079 64.2903 10.1079C64.5876 10.1079 64.8816 10.17 65.1535 10.2903C65.4253 10.4106 65.6691 10.5864 65.869 10.8064C66.069 11.0263 66.2208 11.2857 66.3146 11.5678C66.4085 11.8499 66.4424 12.1484 66.4141 12.4444C66.4429 12.7406 66.4094 13.0396 66.3158 13.3221C66.2222 13.6046 66.0705 13.8645 65.8705 14.0849C65.6704 14.3053 65.4265 14.4814 65.1544 14.6019C64.8823 14.7225 64.5879 14.7847 64.2903 14.7847C63.9927 14.7847 63.6983 14.7225 63.4262 14.6019C63.1541 14.4814 62.9101 14.3053 62.7101 14.0849C62.5101 13.8645 62.3584 13.6046 62.2648 13.3221C62.1712 13.0396 62.1377 12.7406 62.1665 12.4444ZM65.4995 12.4444C65.4995 11.4683 65.061 10.8975 64.2915 10.8975C63.5191 10.8975 63.0845 11.4683 63.0845 12.4444C63.0845 13.4283 63.5191 13.9947 64.2915 13.9947C65.061 13.9947 65.4995 13.4244 65.4995 12.4444H65.4995Z" fill="white"/>
<path id="Vector_17" d="M67.3496 13.4243C67.3496 12.6138 67.9531 12.1465 69.0244 12.0801L70.2441 12.0098V11.6211C70.2441 11.1455 69.9297 10.877 69.3223 10.877C68.8262 10.877 68.4824 11.0591 68.3838 11.3774H67.5234C67.6143 10.604 68.3418 10.1079 69.3633 10.1079C70.4922 10.1079 71.1289 10.6699 71.1289 11.6211V14.6978H70.2734V14.0649H70.2031C70.0604 14.2919 69.86 14.477 69.6224 14.6012C69.3848 14.7254 69.1184 14.7843 68.8506 14.7719C68.6616 14.7916 68.4705 14.7714 68.2897 14.7127C68.109 14.654 67.9425 14.5581 67.8011 14.4311C67.6597 14.3042 67.5464 14.149 67.4687 13.9756C67.3909 13.8021 67.3504 13.6144 67.3496 13.4243ZM70.2441 13.0395V12.6631L69.1445 12.7334C68.5244 12.7749 68.2432 12.9858 68.2432 13.3828C68.2432 13.7881 68.5947 14.0239 69.0782 14.0239C69.2198 14.0382 69.3629 14.0239 69.4989 13.9819C69.6349 13.9398 69.761 13.8707 69.8698 13.7789C69.9786 13.6871 70.0678 13.5743 70.1321 13.4473C70.1964 13.3202 70.2345 13.1816 70.2441 13.0395Z" fill="white"/>
<path id="Vector_18" d="M72.2969 12.4444C72.2969 11.0215 73.0283 10.1201 74.166 10.1201C74.4474 10.1072 74.7267 10.1746 74.9713 10.3145C75.2158 10.4544 75.4154 10.661 75.5469 10.9101H75.6133V8.43701H76.502V14.6978H75.6504V13.9863H75.5801C75.4385 14.2338 75.2319 14.4378 74.9826 14.5763C74.7334 14.7148 74.451 14.7825 74.166 14.772C73.0205 14.772 72.2969 13.8706 72.2969 12.4444ZM73.2149 12.4444C73.2149 13.3994 73.6651 13.9741 74.418 13.9741C75.167 13.9741 75.6299 13.3911 75.6299 12.4483C75.6299 11.5098 75.1621 10.9185 74.418 10.9185C73.6699 10.9185 73.2148 11.4971 73.2148 12.4444H73.2149Z" fill="white"/>
<path id="Vector_19" d="M80.1787 12.4444C80.1504 12.1485 80.1843 11.8499 80.2781 11.5679C80.372 11.2858 80.5237 11.0264 80.7237 10.8065C80.9236 10.5865 81.1673 10.4107 81.4392 10.2904C81.711 10.1702 82.005 10.108 82.3023 10.108C82.5996 10.108 82.8935 10.1702 83.1654 10.2904C83.4372 10.4107 83.6809 10.5865 83.8809 10.8065C84.0808 11.0264 84.2326 11.2858 84.3264 11.5679C84.4203 11.8499 84.4541 12.1485 84.4258 12.4444C84.4547 12.7406 84.4212 13.0396 84.3276 13.3221C84.234 13.6047 84.0824 13.8645 83.8824 14.0849C83.6824 14.3053 83.4385 14.4814 83.1664 14.602C82.8942 14.7225 82.5999 14.7848 82.3023 14.7848C82.0047 14.7848 81.7103 14.7225 81.4382 14.602C81.1661 14.4814 80.9222 14.3053 80.7222 14.0849C80.5222 13.8645 80.3705 13.6047 80.2769 13.3221C80.1833 13.0396 80.1499 12.7406 80.1787 12.4444ZM83.5117 12.4444C83.5117 11.4683 83.0733 10.8975 82.3037 10.8975C81.5313 10.8975 81.0967 11.4683 81.0967 12.4444C81.0967 13.4283 81.5313 13.9947 82.3037 13.9947C83.0733 13.9947 83.5117 13.4244 83.5117 12.4444Z" fill="white"/>
<path id="Vector_20" d="M85.6182 10.1949H86.4736V10.9102H86.54C86.6527 10.6533 86.8427 10.4379 87.0836 10.2941C87.3244 10.1503 87.6042 10.0852 87.8838 10.1079C88.1029 10.0915 88.3229 10.1245 88.5275 10.2046C88.7321 10.2847 88.916 10.4098 89.0657 10.5707C89.2154 10.7315 89.327 10.924 89.3922 11.1338C89.4574 11.3436 89.4745 11.5654 89.4424 11.7827V14.6977H88.5537V12.0059C88.5537 11.2823 88.2393 10.9224 87.582 10.9224C87.4333 10.9155 87.2848 10.9408 87.1467 10.9966C87.0087 11.0525 86.8843 11.1375 86.7822 11.2459C86.6801 11.3543 86.6026 11.4834 86.5551 11.6246C86.5075 11.7657 86.4911 11.9154 86.5068 12.0635V14.6978H85.6182V10.1949Z" fill="white"/>
<path id="Vector_21" d="M94.4639 9.07373V10.2153H95.4395V10.9639H94.4639V13.2793C94.4639 13.751 94.6582 13.9575 95.1006 13.9575C95.2138 13.9572 95.327 13.9503 95.4395 13.937V14.6772C95.2799 14.7058 95.1182 14.721 94.9561 14.7226C93.9678 14.7226 93.5742 14.375 93.5742 13.5068V10.9638H92.8594V10.2153H93.5742V9.07373H94.4639Z" fill="white"/>
<path id="Vector_22" d="M96.6533 8.43701H97.5342V10.9185H97.6045C97.7226 10.6591 97.9178 10.4425 98.1635 10.2982C98.4092 10.1539 98.6935 10.0888 98.9775 10.1118C99.1954 10.1 99.4133 10.1364 99.6156 10.2184C99.8179 10.3004 99.9996 10.4261 100.148 10.5864C100.296 10.7468 100.407 10.9378 100.473 11.146C100.538 11.3541 100.557 11.5742 100.528 11.7905V14.6978H99.6387V12.0098C99.6387 11.2905 99.3037 10.9263 98.6758 10.9263C98.5231 10.9137 98.3694 10.9347 98.2257 10.9878C98.0819 11.0408 97.9514 11.1247 97.8435 11.2334C97.7355 11.3421 97.6525 11.4732 97.6005 11.6173C97.5484 11.7614 97.5285 11.9152 97.542 12.0679V14.6977H96.6534L96.6533 8.43701Z" fill="white"/>
<path id="Vector_23" d="M105.71 13.4819C105.589 13.8934 105.328 14.2494 104.971 14.4876C104.614 14.7257 104.185 14.8309 103.759 14.7846C103.462 14.7924 103.167 14.7356 102.895 14.6181C102.622 14.5006 102.379 14.3251 102.181 14.104C101.983 13.8829 101.835 13.6213 101.749 13.3375C101.662 13.0537 101.638 12.7544 101.679 12.4604C101.639 12.1655 101.664 11.8656 101.75 11.5809C101.837 11.2962 101.983 11.0335 102.18 10.8104C102.377 10.5873 102.619 10.4092 102.891 10.2879C103.163 10.1667 103.457 10.1053 103.755 10.1079C105.008 10.1079 105.764 10.9639 105.764 12.3779V12.688H102.584V12.7378C102.57 12.903 102.591 13.0693 102.645 13.2261C102.699 13.3828 102.785 13.5265 102.898 13.648C103.011 13.7694 103.148 13.866 103.301 13.9314C103.453 13.9968 103.617 14.0296 103.783 14.0278C103.996 14.0533 104.211 14.015 104.402 13.9178C104.593 13.8206 104.75 13.6688 104.855 13.4819L105.71 13.4819ZM102.584 12.0307H104.858C104.87 11.8796 104.849 11.7278 104.798 11.5851C104.747 11.4423 104.667 11.3119 104.563 11.202C104.458 11.0922 104.332 11.0053 104.192 10.9472C104.052 10.889 103.902 10.8607 103.75 10.8642C103.596 10.8623 103.444 10.8911 103.301 10.9491C103.159 11.007 103.03 11.0929 102.921 11.2016C102.812 11.3103 102.727 11.4397 102.669 11.5821C102.611 11.7245 102.582 11.877 102.584 12.0307H102.584Z" fill="white"/>
</g>
</g>
</g>
</g>
<defs>
<clipPath id="clip0_4655_1793">
<rect width="119.664" height="40" fill="white" transform="translate(0.94873)"/>
</clipPath>
</defs>
</svg>
