<svg width="57" height="56" viewBox="0 0 57 56" fill="none" xmlns="http://www.w3.org/2000/svg">
<rect width="56" height="56" transform="translate(0.94873)" fill="#FCF8F7"/>
<path d="M50.8565 8.81217e-10H44.2043V17.9608C44.2043 24.7904 41.1739 29.7277 35.1352 29.7277H28.9487V35.9808C28.9468 36.4833 29.144 36.9661 29.4973 37.3235C29.8505 37.6809 30.331 37.8838 30.8335 37.8877H50.8565C51.106 37.8867 51.3528 37.8366 51.5829 37.7403C51.813 37.6439 52.0218 37.5032 52.1975 37.3261C52.3732 37.149 52.5123 36.9391 52.6069 36.7083C52.7015 36.4774 52.7496 36.2302 52.7487 35.9808V1.90695C52.7506 1.65723 52.7031 1.40959 52.6089 1.17831C52.5147 0.947032 52.3756 0.736692 52.1997 0.559419C52.0238 0.382146 51.8146 0.241447 51.584 0.145434C51.3535 0.0494204 51.1062 -7.62045e-06 50.8565 8.81217e-10Z" fill="#FDD5A9"/>
<path d="M30.8336 0C30.5845 0.000965473 30.338 0.0511113 30.1083 0.14756C29.8786 0.244008 29.6702 0.384861 29.4951 0.562036C29.32 0.739212 29.1816 0.949221 29.0879 1.18002C28.9941 1.41081 28.9468 1.65785 28.9488 1.90695V29.7203H35.1649C41.2035 29.7203 44.234 24.783 44.234 17.9534V0H30.8336Z" fill="#E9A0A7"/>
<path d="M27.125 8.11719C21.9766 9 18.1406 12.9062 17.3672 18.0547C17.3125 18.3906 17.2812 19.9453 17.2812 21.9219C17.2812 25.0703 17.2891 25.2422 17.4453 25.5781C17.6875 26.1172 17.9609 26.4219 18.4219 26.6797L18.8438 26.9219V27.6328C18.8438 28.2266 18.875 28.4219 19.0312 28.75C19.4375 29.625 20.2109 30.1094 21.2031 30.1094H21.7969L22.1172 30.6953C22.2969 31.0234 22.6719 31.5625 22.9453 31.9062L23.4531 32.5312L22.7969 33.8438L22.1406 35.1484L20.0469 35.8438C16.8984 36.8906 15.7578 37.5391 14.2344 39.1484C12.3047 41.1875 11.1797 43.8047 11.0547 46.5156L11.0078 47.5703L11.2266 47.7812L11.4453 48H29H46.5547L46.7734 47.7812L46.9922 47.5703L46.9453 46.5156C46.8203 43.8047 45.6953 41.1875 43.7656 39.1484C42.2422 37.5391 41.1016 36.8906 37.9531 35.8438L35.8594 35.1484L35.2031 33.8359L34.5469 32.5312L34.9219 32.0703C35.8984 30.8984 36.4922 29.6172 36.8047 28.0156L37.0078 26.9844H37.9844C38.8438 26.9844 39.0078 26.9609 39.3594 26.7969C39.8672 26.5625 40.2969 26.1328 40.5312 25.625L40.7188 25.2266V21.9219C40.7188 19.9531 40.6875 18.3906 40.6328 18.0547C40.2578 15.5391 39.1719 13.3438 37.4062 11.5312C35.5938 9.66406 33.2734 8.47656 30.6641 8.08594C29.9219 7.96875 27.8594 7.99219 27.125 8.11719ZM30.6875 9.75781C34.6562 10.4531 37.8125 13.3984 38.8047 17.3359C38.8984 17.7188 39.0078 18.2422 39.0391 18.4844L39.0859 18.9375H38.3516H37.6172L37.5703 18.25C37.4922 17.0703 37.0078 15.7031 36.2969 14.625C35.2656 13.0859 33.7188 11.9531 31.8516 11.3828C31.1562 11.1719 31.1172 11.1641 29 11.1641C26.8828 11.1641 26.8438 11.1719 26.1484 11.3828C24.2812 11.9531 22.7344 13.0859 21.7031 14.625C20.9922 15.7031 20.5078 17.0703 20.4297 18.25L20.3828 18.9375H19.6562C19.1172 18.9375 18.9219 18.9141 18.9219 18.8359C18.9375 18.0859 19.4062 16.4062 19.875 15.4062C20.3906 14.3125 20.9531 13.5312 21.8828 12.6016C23.4844 10.9922 25.3359 10.0625 27.6719 9.69531C28.2031 9.60938 30.0547 9.64844 30.6875 9.75781ZM31.0625 12.8906C31.7578 13.0469 33.0391 13.6641 33.625 14.125C34.6094 14.9062 35.4766 16.2734 35.7969 17.5625C35.9844 18.3203 36.0156 19.6406 35.8438 19.6406C35.7891 19.6406 35.3281 19.5703 34.8281 19.4844C32.4453 19.0703 30.2109 17.9844 28.4531 16.3906L27.7891 15.7891L26.9297 15.8359C25.2656 15.9219 23.6719 16.625 22.4922 17.8125C21.9766 18.3203 21.9844 18.3359 22.2969 17.2578C22.9922 14.8359 25.1797 13.0312 27.7422 12.7578C28.5703 12.6719 30.3984 12.7422 31.0625 12.8906ZM27.3281 17.6172C27.6094 17.9375 28.8203 18.8359 29.5781 19.2812C31.1094 20.1953 32.7891 20.8047 34.6172 21.1172C35.1484 21.2109 35.6719 21.2812 35.7734 21.2812C35.9531 21.2812 35.9609 21.3047 35.9219 21.5703C35.8984 21.7344 35.8594 22.2344 35.8359 22.6875C35.7422 24.2578 35.3594 27.0547 35.0859 28.1953C34.8828 29 34.2656 30.2422 33.7422 30.8906C32.5547 32.3516 30.8984 33.1562 29.0781 33.1719C27.7734 33.1797 26.8125 32.9141 25.7578 32.2344C25.1484 31.8438 24.3203 31.0469 23.9297 30.4766L23.6797 30.1094H24.4219H25.1562L25.3984 30.5312C25.6562 30.9922 25.9609 31.2656 26.5 31.5078C26.8125 31.6484 27.0156 31.6719 28.2188 31.6719C29.4922 31.6719 29.6094 31.6562 29.9844 31.4844C30.8594 31.0781 31.3438 30.3047 31.3438 29.3281C31.3438 28.3516 30.8594 27.5781 29.9844 27.1719C29.6094 27 29.4922 26.9844 28.2188 26.9844C27.0156 26.9844 26.8125 27.0078 26.5 27.1484C25.9609 27.3906 25.6562 27.6641 25.3984 28.125L25.1562 28.5469H24.0703H22.9922L22.9062 28.2422C22.6719 27.3672 22.2578 24.0547 22.0859 21.6719L22.0391 21L22.6562 20.1875C23.7969 18.6719 24.7422 17.9531 26.0391 17.6094C26.8203 17.4062 27.1406 17.4141 27.3281 17.6172ZM20.4375 21.5312C20.4922 22.5547 20.6797 24.7812 20.7578 25.2188L20.7969 25.4375L20.1094 25.4062C18.875 25.3438 18.8906 25.375 18.8594 22.6641L18.8359 20.5H19.6094H20.3828L20.4375 21.5312ZM39.1406 22.6641C39.1094 25.375 39.125 25.3438 37.8906 25.4062L37.2031 25.4375L37.2422 25.2188C37.3125 24.7812 37.5078 22.5625 37.5625 21.5312L37.6094 20.5H38.3906H39.1641L39.1406 22.6641ZM21.0938 27.5078C21.1406 27.8047 21.2031 28.1484 21.2344 28.2812C21.2812 28.5156 21.2656 28.5234 21.0781 28.4922C20.6484 28.4062 20.4062 27.9766 20.4062 27.2891C20.4062 26.9844 20.4062 26.9844 20.7109 26.9844H21.0078L21.0938 27.5078ZM29.0703 28.5938C29.9062 28.7656 29.9062 29.8906 29.0703 30.0625C28.75 30.125 27.6875 30.125 27.3672 30.0625C26.7734 29.9375 26.5234 29.25 26.9375 28.8359C27.0469 28.7266 27.2109 28.6172 27.3047 28.6016C27.5859 28.5469 28.8047 28.5469 29.0703 28.5938ZM34.3047 35.8984C34.3125 36.0781 33.6172 37.8125 33.1094 38.8984L32.6641 39.8281L31.3828 38.5469L30.0938 37.2656L30.3516 36.9844C30.4922 36.8359 31.2188 36.0625 31.9688 35.2812L33.3281 33.8438L33.8125 34.8125C34.0859 35.3359 34.3047 35.8281 34.3047 35.8984ZM26.1641 35.75L27.7422 37.3359L26.5391 38.5859L25.3438 39.8359L24.8984 38.8984C24.4219 37.8984 23.6875 36.0859 23.6875 35.9141C23.6875 35.7969 24.4844 34.1719 24.5469 34.1719C24.5703 34.1719 25.2969 34.8828 26.1641 35.75ZM29.0938 34.8203H30.0859L29.5312 35.4141C29.2266 35.7422 28.9609 36.0156 28.9297 36.0312C28.9062 36.0391 28.5781 35.7422 28.2188 35.375C27.5703 34.7188 27.5625 34.7031 27.8281 34.7656C27.9766 34.7969 28.5469 34.8203 29.0938 34.8203ZM22.6328 37.8594C23.4688 39.9609 24.6016 42.0156 26.4297 44.7344C26.8438 45.3516 27.2578 45.9844 27.3516 46.1406L27.5312 46.4375H20.1016C13.8672 46.4375 12.6719 46.4219 12.6719 46.3281C12.6719 46.0391 12.9297 44.8125 13.1094 44.2344C13.8828 41.7969 15.5625 39.7031 17.7109 38.5C18.2031 38.2266 21.8281 36.9219 22.1328 36.9141C22.2188 36.9062 22.3672 37.1953 22.6328 37.8594ZM37.7969 37.5312C38.8516 37.8906 39.9219 38.3047 40.25 38.4844C42.4062 39.6641 44.1094 41.7812 44.8906 44.2344C45.0703 44.8125 45.3281 46.0391 45.3281 46.3281C45.3281 46.4219 44.1328 46.4375 37.8984 46.4375H30.4688L30.6484 46.1406C30.7422 45.9844 31.1562 45.3516 31.5703 44.7344C33.375 42.0547 34.5547 39.9219 35.3672 37.8594C35.5781 37.3359 35.7891 36.9062 35.8359 36.9062C35.8828 36.9062 36.7656 37.1875 37.7969 37.5312ZM30.3672 39.9531L31.7734 41.3594L31.6328 41.6172C31.5547 41.7578 31.2109 42.2812 30.875 42.7734C30.5391 43.2656 29.9844 44.0938 29.6562 44.6172C29.3281 45.1484 29.0312 45.5781 29.0078 45.5781C28.9844 45.5781 28.6875 45.1484 28.3516 44.6172C28.0156 44.0938 27.4062 43.1719 27 42.5781C26.5938 41.9844 26.2656 41.4453 26.2656 41.3906C26.2656 41.2969 28.8203 38.5469 28.9141 38.5469C28.9375 38.5469 29.5938 39.1797 30.3672 39.9531Z" fill="#151515"/>
<path d="M37.0156 39.1406C36.8516 39.3047 36.8125 39.4219 36.8125 39.7188C36.8125 40.0156 36.8516 40.1328 37.0156 40.2969C37.1797 40.4609 37.2969 40.5 37.5938 40.5C38.1094 40.5 38.375 40.2344 38.375 39.7188C38.375 39.4219 38.3359 39.3047 38.1719 39.1406C37.875 38.8516 37.3125 38.8516 37.0156 39.1406Z" fill="#151515"/>
<path d="M39.7734 40.6484C39.5938 40.8281 39.5469 40.9453 39.5469 41.2031C39.5469 41.5156 39.5938 41.5781 40.2031 42.2109C40.9844 43.0078 41.0859 43.125 41.4609 43.7656C41.7812 44.3125 41.9062 44.4062 42.3594 44.4062C42.7734 44.4062 43.1406 44.0625 43.1406 43.6641C43.1406 43.0312 41.7109 41.1016 40.8359 40.5625C40.4688 40.3438 40.0469 40.375 39.7734 40.6484Z" fill="#151515"/>
</svg>
