<svg width="80" height="80" viewBox="0 0 80 80" fill="none" xmlns="http://www.w3.org/2000/svg">
<path d="M65.8727 34.4389H43.376V34.3806C49.0876 32.535 53.3907 28.4067 53.3907 21.8112C53.3907 18.7902 52.4193 15.1087 48.4562 11.6118C46.8736 12.8011 45.5904 14.3431 44.7085 16.1154C43.8266 17.8877 43.3703 19.8413 43.376 21.8209V36.7605C43.3289 38.463 43.6237 40.1578 44.2427 41.7445C44.8618 43.3312 45.7927 44.7778 46.9803 45.9986C48.1679 47.2195 49.5882 48.1899 51.1572 48.8526C52.7262 49.5152 54.4122 49.8566 56.1154 49.8566C57.8186 49.8566 59.5045 49.5152 61.0736 48.8526C62.6426 48.1899 64.0629 47.2195 65.2505 45.9986C66.4381 44.7778 67.369 43.3312 67.988 41.7445C68.6071 40.1578 68.9018 38.463 68.8548 36.7605V33.7784C67.9294 34.2382 66.9057 34.4649 65.8727 34.4389Z" fill="#FDD5A9"/>
<path d="M56.0609 9.07667C53.3116 9.07316 50.6356 9.96291 48.4357 11.6119C52.4183 15.1089 53.3702 18.7903 53.3702 21.8113C53.3702 28.4068 49.0671 32.4963 43.3555 34.3807V34.439H65.8717C66.8818 34.4541 67.8809 34.2276 68.7858 33.7785V21.821C68.7858 18.4443 67.4457 15.2057 65.0599 12.8163C62.6741 10.4268 59.4375 9.08182 56.0609 9.07667Z" fill="#F6A0A8"/>
<path d="M20.7578 50.1177V44.6274C20.7578 44.1856 20.3998 43.8276 19.958 43.8276C19.5162 43.8276 19.1582 44.1856 19.1582 44.6274V50.1177C19.1582 50.5595 19.5162 50.9175 19.958 50.9175C20.3998 50.9175 20.7578 50.5595 20.7578 50.1177Z" fill="#1E1E1E"/>
<path d="M26.0027 45.1067C25.5794 44.9807 25.1337 45.2215 25.0076 45.6448L23.1795 51.7903C23.0535 52.2136 23.2943 52.6592 23.7175 52.7854C24.1409 52.9113 24.5865 52.6705 24.7127 52.2473L26.5408 46.1018C26.6667 45.6784 26.4259 45.2328 26.0027 45.1067Z" fill="#1E1E1E"/>
<path d="M14.3332 45.1062C14.7566 44.9803 15.2022 45.2211 15.3284 45.6443L17.1565 51.7898C17.2824 52.2131 17.0416 52.6587 16.6184 52.7849C16.1951 52.9108 15.7494 52.67 15.6233 52.2468L13.7952 46.1013C13.6692 45.678 13.91 45.2323 14.3332 45.1062Z" fill="#1E1E1E"/>
<path d="M46.4801 19.2412C45.4236 19.2914 44.5951 19.7592 44.1295 20.2246C43.8171 20.5371 43.8171 21.0441 44.1295 21.3565C44.4419 21.6689 44.9489 21.6689 45.2614 21.3565C45.4647 21.1533 45.9236 20.8699 46.5563 20.8399C47.1632 20.8111 48.0113 21.0119 49.0172 21.9024C51.3754 23.9901 54.0202 25.318 55.0885 25.7354C55.4999 25.896 55.9638 25.6926 56.1246 25.2813C56.2854 24.8698 56.082 24.4059 55.6705 24.2451C54.7481 23.8848 52.273 22.6485 50.0778 20.7051C48.8071 19.5802 47.5629 19.1899 46.4801 19.2412Z" fill="#1E1E1E"/>
<path d="M42.9086 19.2412C43.9654 19.2913 44.7946 19.7591 45.2601 20.2246C45.5725 20.537 45.5724 21.044 45.2601 21.3565C44.9477 21.6689 44.4407 21.6689 44.1283 21.3565C43.9251 21.1533 43.4661 20.87 42.8334 20.8399C42.2265 20.8111 41.3783 21.012 40.3724 21.9024C38.0023 24.0006 35.6755 25.0452 34.6263 25.4551C34.2148 25.6158 33.751 25.4125 33.5902 25.001C33.4294 24.5895 33.6328 24.1256 34.0443 23.9649C34.9859 23.597 37.1286 22.6379 39.3119 20.7051C40.5824 19.5803 41.8258 19.19 42.9086 19.2412Z" fill="#1E1E1E"/>
<path d="M52.2074 10.2282C49.2934 9.43337 45.906 9.20363 42.9623 9.34733C41.4871 9.41934 40.1067 9.58606 38.9369 9.82877C37.7848 10.0678 36.7729 10.3933 36.0795 10.8171C32.2457 13.16 28.1394 17.5985 28.6986 24.5631C28.734 25.0036 29.1205 25.3319 29.5609 25.2965C30.0011 25.261 30.3297 24.8755 30.2943 24.4352C29.8003 18.2835 33.384 14.3392 36.9134 12.1823C37.3719 11.9021 38.1708 11.6216 39.2621 11.3952C40.3356 11.1725 41.6317 11.0138 43.0404 10.945C45.8644 10.8071 49.0752 11.032 51.7855 11.7712C53.7734 12.3134 55.7854 14.0486 57.3021 16.4421C58.8099 18.8216 59.7523 21.7373 59.6976 24.4831C59.6888 24.9248 60.0401 25.2906 60.4818 25.2995C60.9235 25.3083 61.2894 24.957 61.2982 24.5153C61.3602 21.4055 60.3008 18.185 58.6537 15.5856C57.0154 13.0003 54.7187 10.9134 52.2074 10.2282Z" fill="#1E1E1E"/>
<path d="M58.2879 21.7129C57.5086 21.729 56.8389 22.1046 56.3396 22.4981C55.8321 22.8982 55.4203 23.3804 55.1424 23.7471C55.0014 23.9331 54.8895 24.0959 54.8123 24.2139C54.7736 24.2731 54.7438 24.3219 54.7224 24.3565C54.7119 24.3737 54.7032 24.3873 54.6971 24.3975C54.694 24.4026 54.6911 24.407 54.6892 24.4102L54.6863 24.4161L54.6853 24.417L54.576 24.6036L54.575 33.9424C54.2275 35.6365 53.3578 37.8787 51.7303 39.6895C50.0997 41.5035 47.6939 42.906 44.1951 42.8936C40.7456 42.8813 38.5468 41.257 37.1726 39.2754C35.7735 37.2578 35.2409 34.8769 35.2098 33.4961V24.8194L35.1844 24.7198C35.0442 24.1853 34.6976 23.6852 34.2898 23.2911C33.8748 22.89 33.3394 22.5429 32.7449 22.3536C32.1459 22.1628 31.4541 22.1246 30.781 22.3995C30.1026 22.6766 29.5405 23.2322 29.1326 24.0479C28.246 25.8211 28.899 27.8868 29.91 29.6026C30.8773 31.2443 32.3021 32.7888 33.6287 33.9014C33.7412 35.568 34.3715 38.0451 35.8572 40.1875C37.4823 42.5309 40.1406 44.4798 44.1902 44.4942C48.1825 44.5082 51.0108 42.8833 52.9197 40.7598C54.808 38.6591 55.7813 36.0918 56.1599 34.1807L56.1756 34.1036V33.7774C57.4295 32.6707 59.023 30.8848 60.1043 29.0186C60.6869 28.013 61.1502 26.9346 61.3045 25.8936C61.4606 24.8392 61.3048 23.7591 60.5623 22.8789C59.89 22.0821 59.1117 21.6961 58.2879 21.7129ZM31.3865 23.8799C31.639 23.777 31.9345 23.7745 32.2596 23.878C32.5891 23.9829 32.9156 24.1884 33.1775 24.4414C33.4105 24.6666 33.5481 24.8903 33.6101 25.0547V31.7178C32.7405 30.8495 31.9028 29.832 31.2889 28.7901C30.3431 27.1849 30.0594 25.7714 30.5633 24.7637C30.8365 24.2173 31.1396 23.9807 31.3865 23.8799ZM58.3201 23.3125C58.5608 23.3076 58.9068 23.3986 59.3387 23.9102C59.7004 24.3389 59.8324 24.91 59.7215 25.6592C59.6085 26.422 59.25 27.3013 58.7195 28.2168C58.0213 29.4219 57.0729 30.6031 56.1756 31.5479V25.0537C56.2351 24.9641 56.3169 24.846 56.4178 24.7129C56.6524 24.4033 56.97 24.0376 57.3299 23.7539C57.698 23.4637 58.0346 23.3185 58.3201 23.3125Z" fill="#1E1E1E"/>
<path d="M29.5352 46.6631C21.6165 41.7663 14.0378 44.2977 10.7197 46.5049C10.1719 46.8693 9.90733 47.5006 9.96973 48.1172C10.5821 54.1676 13.1365 57.2925 15.1309 58.5254C15.3362 58.6523 15.5263 58.9735 15.5518 59.3477C15.6453 60.7189 16.5137 61.8577 17.1797 62.5039C17.2901 62.6111 17.3136 62.7158 17.3086 62.7725L16.7998 68.4248C16.7053 69.4781 17.5352 70.3857 18.5928 70.3857H68.2822C69.2763 70.3857 70.0819 69.5799 70.082 68.5859V59.7393C70.0819 55.7113 67.2875 52.7942 63.9844 50.8027C60.6627 48.8001 56.634 47.6065 53.7139 47.0625C53.5965 47.0406 53.5254 46.9446 53.5254 46.8477V40.5576C53.5254 40.1158 53.1674 39.7578 52.7256 39.7578C52.2838 39.7578 51.9258 40.1158 51.9258 40.5576V46.8477C51.9258 47.7376 52.568 48.4769 53.4209 48.6357C56.2246 49.1581 60.0535 50.3011 63.1582 52.1729C66.2814 54.0558 68.4823 56.5509 68.4824 59.7393V68.5859C68.4823 68.6963 68.3926 68.7861 68.2822 68.7861H23.6211L23.0703 62.7344C23.0674 62.7015 23.0735 62.6514 23.1172 62.5781C23.1636 62.5005 23.2442 62.4132 23.3545 62.3379C24.5361 61.5314 24.9583 60.2171 25.0322 59.1953C25.0497 58.9547 25.207 58.6859 25.4424 58.5293C26.8691 57.5802 27.9311 55.6688 28.6953 53.8154C29.4777 51.918 30.0203 49.8959 30.3232 48.5303C30.4847 47.8026 30.1678 47.0545 29.5352 46.6631ZM11.6064 47.8379C14.5658 45.8694 21.4545 43.547 28.6934 48.0234C28.7486 48.0576 28.7754 48.1216 28.7617 48.1836C28.4707 49.4956 27.9513 51.4215 27.2158 53.2051C26.4622 55.0328 25.5496 56.5361 24.5557 57.1973C23.9436 57.6046 23.4926 58.3054 23.4365 59.0801C23.3829 59.8211 23.0864 60.5838 22.4521 61.0166C21.94 61.3662 21.3985 62.022 21.4766 62.8799L22.0146 68.7861H18.5928C18.4753 68.7861 18.383 68.6844 18.3936 68.5674L18.9023 62.916C18.959 62.2859 18.6782 61.7284 18.2939 61.3555C17.743 60.8208 17.2027 60.0321 17.1484 59.2393C17.0974 58.491 16.7242 57.6297 15.9727 57.165C14.4801 56.2425 12.134 53.6121 11.5615 47.9561C11.5549 47.891 11.5839 47.8529 11.6064 47.8379Z" fill="#1E1E1E"/>
<path d="M36.8428 39.6775C36.4011 39.6878 36.0513 40.0542 36.0615 40.4958L36.2148 47.0652L29.625 48.7517C29.197 48.8612 28.9384 49.2973 29.0479 49.7253C29.1574 50.1532 29.5935 50.411 30.0215 50.3015L37.8438 48.3005L37.6611 40.4587C37.6508 40.017 37.2844 39.6672 36.8428 39.6775Z" fill="#1E1E1E"/>
<path d="M37.4266 46.6147C37.1142 46.3022 36.6072 46.3023 36.2947 46.6147C35.9827 46.927 35.9827 47.4332 36.2947 47.7455C38.9844 50.4356 42.6296 51.1468 45.826 50.8569C47.4288 50.7115 48.9471 50.3136 50.2215 49.7651C51.4826 49.2223 52.5646 48.5062 53.2342 47.686C53.5132 47.3438 53.4619 46.8403 53.1199 46.561C52.7776 46.2816 52.2733 46.332 51.9939 46.6743C51.5463 47.2225 50.7183 47.8091 49.5887 48.2953C48.4725 48.7757 47.1194 49.1336 45.6814 49.2641C42.7955 49.5258 39.6801 48.8685 37.4266 46.6147Z" fill="#1E1E1E"/>
<path d="M58.0114 48.7276C57.5704 48.7549 57.2351 49.1353 57.2624 49.5763C57.6679 56.1345 59.7142 61.4652 62.8493 63.9298C62.9406 64.0015 62.9716 64.0842 62.9733 64.1397L63.1266 69.5753C63.1391 70.0169 63.5073 70.365 63.9489 70.3526C64.3905 70.3401 64.7387 69.972 64.7262 69.5304L64.5719 64.0948C64.5553 63.5054 64.2534 62.9988 63.8376 62.672C61.2426 60.6317 59.2547 55.8761 58.8591 49.4766C58.8316 49.0359 58.4522 48.7004 58.0114 48.7276Z" fill="#1E1E1E"/>
<path d="M31.4652 48.7276C31.9062 48.7549 32.2415 49.1353 32.2142 49.5763C31.8086 56.1345 29.7624 61.4652 26.6273 63.9298C26.536 64.0015 26.5049 64.0842 26.5033 64.1397L26.3499 69.5753C26.3374 70.0169 25.9692 70.365 25.5277 70.3526C25.086 70.3401 24.7379 69.972 24.7503 69.5304L24.9046 64.0948C24.9213 63.5054 25.2232 62.9988 25.639 62.672C28.234 60.6317 30.2219 55.8761 30.6175 49.4766C30.645 49.0359 31.0243 48.7004 31.4652 48.7276Z" fill="#1E1E1E"/>
<path d="M36.7333 47.1358C36.2921 47.1133 35.9161 47.4525 35.8934 47.8936C35.5519 54.588 36.853 59.8954 38.6522 63.669C39.5509 65.5538 40.5774 67.0644 41.5936 68.1739C42.5954 69.2676 43.6391 70.0288 44.5868 70.3184L44.7831 70.378L44.9842 70.336C46.6859 69.9804 48.0645 68.6943 49.1551 67.0577C50.2555 65.4064 51.1404 63.2849 51.8182 61.0382C53.1719 56.5512 53.7547 51.3816 53.494 48.0401C53.4596 47.5998 53.0749 47.2706 52.6346 47.3048C52.1942 47.3391 51.8651 47.7238 51.8993 48.1641C52.1419 51.2744 51.5929 56.2441 50.286 60.5763C49.6335 62.739 48.8053 64.6975 47.8241 66.17C46.8953 67.5638 45.8953 68.4251 44.8641 68.7179C44.3179 68.4948 43.5852 67.9791 42.7743 67.0938C41.8791 66.1165 40.9367 64.7426 40.0965 62.9806C38.418 59.4601 37.1623 54.4195 37.4911 47.9757C37.5136 47.5345 37.1744 47.1585 36.7333 47.1358Z" fill="#1E1E1E"/>
<path d="M30.54 69.5527V66.6982C30.54 66.5878 30.6298 66.498 30.7402 66.498H36.1143C36.2247 66.498 36.3145 66.5878 36.3145 66.6982V69.4697C36.3147 69.9113 36.6726 70.2695 37.1143 70.2695C37.5559 70.2695 37.9138 69.9113 37.9141 69.4697V66.6982C37.9141 65.7041 37.1084 64.8984 36.1143 64.8984H30.7402C29.7461 64.8984 28.9404 65.7041 28.9404 66.6982V69.5527C28.9404 69.9946 29.2984 70.3525 29.7402 70.3525C30.182 70.3525 30.54 69.9945 30.54 69.5527Z" fill="#1E1E1E"/>
<path d="M53.415 69.5527V66.6982C53.415 66.5878 53.5048 66.498 53.6152 66.498H58.9893C59.0997 66.498 59.1895 66.5878 59.1895 66.6982V69.4697C59.1897 69.9113 59.5476 70.2695 59.9893 70.2695C60.4309 70.2695 60.7888 69.9113 60.7891 69.4697V66.6982C60.7891 65.7041 59.9834 64.8984 58.9893 64.8984H53.6152C52.6211 64.8984 51.8154 65.7041 51.8154 66.6982V69.5527C51.8154 69.9946 52.1734 70.3525 52.6152 70.3525C53.057 70.3525 53.415 69.9945 53.415 69.5527Z" fill="#1E1E1E"/>
<path d="M18.3057 61.0776C17.8638 61.0776 17.5059 61.4356 17.5059 61.8774C17.5059 62.3193 17.8638 62.6772 18.3057 62.6772H22.2393C22.6811 62.6772 23.0391 62.3193 23.0391 61.8774C23.0391 61.4356 22.6811 61.0776 22.2393 61.0776H18.3057Z" fill="#1E1E1E"/>
<path d="M16.7588 57.4951C16.317 57.4951 15.959 57.8531 15.959 58.2949C15.959 58.7367 16.317 59.0947 16.7588 59.0947H23.7861C24.228 59.0947 24.5859 58.7367 24.5859 58.2949C24.5859 57.8531 24.228 57.4951 23.7861 57.4951H16.7588Z" fill="#1E1E1E"/>
<path d="M58.0948 61.6338C57.432 60.511 55.8323 60.4438 55.0773 61.5069L52.1007 65.6973C51.8449 66.0575 51.929 66.5577 52.2892 66.8135C52.6493 67.0692 53.1486 66.9841 53.4044 66.6241L56.382 62.4327C56.466 62.3151 56.6434 62.3227 56.7169 62.4473L59.1564 66.5792C59.381 66.9595 59.8707 67.0857 60.2511 66.8614C60.6316 66.6368 60.7579 66.1462 60.5333 65.7657L58.0948 61.6338Z" fill="#1E1E1E"/>
</svg>
