<svg width="81" height="81" viewBox="0 0 81 81" fill="none" xmlns="http://www.w3.org/2000/svg">
<path d="M62.3205 15.0618H56.0839V31.9006C56.0839 38.3036 53.2428 42.9325 47.5813 42.9325H41.7813V48.7949C41.7794 49.2661 41.9643 49.7187 42.2955 50.0538C42.6267 50.3889 43.0772 50.5791 43.5483 50.5828H62.3205C62.5544 50.5819 62.7858 50.5349 63.0015 50.4445C63.2172 50.3542 63.4131 50.2223 63.5778 50.0563C63.7425 49.8902 63.8729 49.6934 63.9616 49.477C64.0502 49.2606 64.0954 49.0288 64.0945 48.7949V16.8496C64.0963 16.6155 64.0518 16.3833 63.9635 16.1665C63.8751 15.9496 63.7447 15.7524 63.5798 15.5862C63.4149 15.42 63.2187 15.2881 63.0026 15.1981C62.7865 15.1081 62.5547 15.0618 62.3205 15.0618Z" fill="#FDD5A9"/>
<path d="M43.5483 15.0618C43.3148 15.0627 43.0837 15.1097 42.8684 15.2001C42.6531 15.2905 42.4577 15.4226 42.2935 15.5887C42.1293 15.7548 41.9996 15.9517 41.9117 16.1681C41.8238 16.3845 41.7795 16.6161 41.7813 16.8496V42.9256H47.6091C53.2705 42.9256 56.1117 38.2966 56.1117 31.8937V15.0618H43.5483Z" fill="#F6A0A8"/>
<path d="M36.2148 28.8101L38.9311 30.7501L44.9061 23.2229" stroke="#1E1E1E" stroke-width="1.6" stroke-linecap="round"/>
<path d="M40.3517 46.0618C35.1183 42.804 25.6421 36.636 24.053 21.4498C24.0059 20.999 24.2675 20.572 24.6659 20.3558C26.787 19.2046 29.7458 16.4786 30.1884 12.9536C30.2612 12.3738 30.7238 11.8899 31.3082 11.8899H39.6945" stroke="#1E1E1E" stroke-width="1.6655" stroke-linecap="round"/>
<path d="M39.7532 40.3949C36.0718 38.1032 29.4233 33.7764 28.2399 23.1687C28.1917 22.736 28.4443 22.3284 28.8208 22.1096C30.2502 21.2789 32.1144 19.5071 32.5206 17.2321C32.6192 16.6794 33.0617 16.2129 33.6231 16.2129H39.2882" stroke="#1E1E1E" stroke-width="1.6" stroke-linecap="round"/>
<path d="M40.5645 46.0618C45.7978 42.804 54.157 36.636 55.7096 21.45C55.7557 20.9991 55.4942 20.572 55.0959 20.3558C52.9748 19.2046 50.0159 16.4786 49.5733 12.9536C49.5005 12.3738 49.0379 11.8899 48.4535 11.8899H37.4355" stroke="#1E1E1E" stroke-width="1.6655" stroke-linecap="round"/>
<path d="M40.0085 40.3949C43.69 38.1032 50.3384 33.7764 51.5218 23.1687C51.5701 22.736 51.3174 22.3284 50.941 22.1096C49.5116 21.2789 47.6473 19.5071 47.2411 17.2321C47.1425 16.6794 46.7 16.2129 46.1387 16.2129H38.6112" stroke="#1E1E1E" stroke-width="1.6" stroke-linecap="round"/>
<rect x="11.0305" y="39.8837" width="8.88923" height="24.9032" rx="1.2" stroke="#1E1E1E" stroke-width="1.6"/>
<path d="M21.3594 43.886C23.5293 44.2778 28.4479 45.4593 30.7628 47.0507C33.6564 49.04 45.5017 49.5825 46.1347 49.5825C46.7676 49.5825 50.927 50.0346 50.7462 55.0982" stroke="#1E1E1E" stroke-width="1.6" stroke-linecap="round"/>
<path d="M30.5811 54.8265C30.7326 55.3992 31.4333 56.5446 33.0241 56.5446C34.6149 56.5446 47.4908 55.7007 53.7299 55.2787L66.389 47.3216C67.2631 46.8091 69.2283 46.2182 70.0963 47.9543C70.9644 49.6904 70.458 50.9686 70.0963 51.3907L58.3415 62.1509C57.7085 62.7839 55.665 64.1402 52.5545 64.5019C49.4439 64.8636 40.4078 66.2802 36.2785 66.9433C35.2839 67.0036 32.7159 66.7806 30.4011 65.4061C28.0863 64.0317 23.5296 62.7839 21.3594 62.1509" stroke="#1E1E1E" stroke-width="1.6" stroke-linecap="round"/>
</svg>
