<svg width="57" height="56" viewBox="0 0 57 56" fill="none" xmlns="http://www.w3.org/2000/svg">
<g clip-path="url(#clip0_4655_1729)">
<rect width="56" height="56" transform="translate(0.94873)" fill="#FCF8F7"/>
<path d="M0.97876 32.7498C0.97876 36.7379 2.54325 39.7341 5.67224 40.4326V31.751C5.65142 31.393 5.54709 31.0448 5.3676 30.7344C5.1881 30.4239 4.93843 30.1597 4.63856 29.963L0.97876 27.8677V32.7498Z" fill="#E9A0A7"/>
<path d="M5.67015 31.7508V40.4533C6.1296 40.5494 6.59763 40.5986 7.06702 40.6H8.02387C12.2145 40.6 14.7777 37.6317 16.5448 32.7147L19.5969 24.2496V0H17.5016C16.6773 0 15.8868 0.327452 15.3039 0.910322C14.7211 1.49319 14.3936 2.28373 14.3936 3.10803V15.0303H13.6463C11.8932 9.37998 7.61878 2.45849 2.3456 2.45849H0.94873V27.8466L4.60853 29.9419C4.9084 30.1386 5.15807 30.4027 5.33757 30.7132C5.51706 31.0237 5.62139 31.3719 5.64221 31.7299" fill="#FDD5A9"/>
<g clip-path="url(#clip1_4655_1729)">
<path d="M9.74219 8.22656C9.4375 8.40625 9.09375 8.8125 9.03125 9.05469C9.00781 9.15625 9 9.64062 9.01562 10.1328C9.03906 10.9531 9.05469 11.0391 9.25 11.2969C9.52344 11.6562 9.92188 11.8359 10.5391 11.8906L11.0312 11.9297V22.1484V32.375H10.5859C9.86719 32.3828 9.28906 32.7188 9.08594 33.2578C8.97656 33.5469 8.97656 35.0312 9.08594 35.3203C9.20312 35.6328 9.46094 35.8906 9.82031 36.0547C10.1172 36.1953 10.6094 36.2031 21.3672 36.2031H32.5938V38.2266C32.5938 40.2422 32.6484 40.8672 32.8672 41.3047C32.9688 41.5156 32.9688 41.5547 32.8281 41.7578C32.5391 42.1641 32.4453 42.6016 32.1953 44.8047C31.9609 46.9453 31.9531 47.0078 32.0938 47.3047C32.1641 47.4766 32.3438 47.6797 32.4766 47.7656C32.7266 47.9219 32.8828 47.9219 39.1562 47.9219C45.4297 47.9219 45.5859 47.9219 45.8359 47.7656C45.9688 47.6797 46.1484 47.4766 46.2266 47.3047C46.3594 47.0078 46.3594 46.9453 46.1562 45.1328C46.0391 44.1094 45.9219 43.1641 45.8984 43.0234C45.8594 42.7891 45.875 42.7734 46.2031 42.6875C47.1953 42.4219 48.1719 41.5703 48.6719 40.5234L48.9609 39.9141L48.9844 38.7031C49 38.0391 48.9609 35.6953 48.8906 33.5078C48.7812 29.9062 48.7578 29.4766 48.6094 29.0078C48.2266 27.75 47.2109 26.7891 45.9688 26.5L45.5625 26.3984V25.3984C45.5625 24.4453 45.5547 24.3906 45.3672 24.2109C45.1172 23.9531 44.7578 23.9531 44.5078 24.2109C44.3203 24.3906 44.3125 24.4531 44.3125 25.2656C44.3125 25.7344 44.2969 26.125 44.2734 26.125C44.1094 26.125 41.9922 25.6328 41.9453 25.5859C41.9062 25.5469 41.8594 25.375 41.8359 25.1953C41.7969 24.8906 41.8125 24.8594 42.3125 24.3281C43.2266 23.3594 43.4531 22.7031 43.4531 21.0703C43.4531 20.4531 43.4609 19.9531 43.4766 19.9531C43.4844 19.9531 43.6719 20.0234 43.8828 20.1016L44.2734 20.25L44.3125 21.4375C44.3516 22.5703 44.3594 22.6328 44.5391 22.7734C44.7891 22.9766 45.1406 22.9609 45.3672 22.7266L45.5625 22.5391V20.3438C45.5625 18.6484 45.5312 18.0156 45.4375 17.5469C45.2891 16.8047 44.9844 16.0625 44.5781 15.4531C44.2422 14.9453 43.4219 14.1016 43.0625 13.8828L42.8281 13.75V12.8281V11.9062H43.1641C43.6562 11.9062 44.0469 11.7734 44.3672 11.4922C44.7734 11.1328 44.8594 10.8594 44.8594 9.95312C44.8594 9.03906 44.7344 8.69531 44.2578 8.33594L43.9766 8.11719L26.9766 8.09375C10.5234 8.07812 9.96875 8.08594 9.74219 8.22656ZM43.5938 9.89844C43.6094 10.2266 43.5781 10.4766 43.5234 10.5469C43.4453 10.6406 41.0391 10.6562 26.9375 10.6562C17.4062 10.6562 10.3984 10.625 10.3359 10.5859C10.1875 10.4922 10.125 9.71875 10.2422 9.49219L10.3359 9.32812L26.9531 9.34375L43.5703 9.36719L43.5938 9.89844ZM41.5781 12.5156V13.125L41.0547 12.9922C40.3359 12.8047 38.1406 12.7891 37.3359 12.9688C36.5938 13.1328 35.4844 13.6797 34.8828 14.1719C34.0078 14.8984 33.2734 16.0234 32.9375 17.1797C32.8125 17.6016 32.7969 18.1172 32.7734 22.0234L32.7422 26.3984L32.3438 26.5C31.4609 26.7109 30.6875 27.2422 30.1875 28C29.7578 28.6406 29.5625 29.3047 29.5 30.3516C29.4688 30.8203 29.4141 31.2031 29.3828 31.2031C29.3438 31.2031 28.5703 30.6953 27.6641 30.0703C26.7578 29.4453 25.8984 28.875 25.7656 28.8047C25.6328 28.7344 25.3906 28.5703 25.2344 28.4375C24.4609 27.7734 23.5 27.5859 22.7188 27.9453L22.2891 28.1484L20.3516 26.8125C18.2109 25.3359 18.0547 25.2734 17.6953 25.6953C17.4766 25.9453 17.4922 26.2969 17.7344 26.5234C17.8047 26.6016 18.6875 27.2188 19.6953 27.9062L21.5156 29.1641L21.5312 29.8594C21.5391 30.4844 21.5625 30.5859 21.7734 30.9375C21.9141 31.1562 22.1953 31.4453 22.4375 31.6172C22.6719 31.7812 22.9297 32.0156 23.0078 32.1406L23.1562 32.375H19.4531C16.5469 32.3828 15.7266 32.3984 15.625 32.4844C15.3047 32.7266 15.3047 33.2734 15.625 33.5156C15.7266 33.6016 16.7188 33.6172 20.4219 33.625H25.0859L26.1172 34.2891L27.1484 34.9531H18.7422C10.5078 34.9531 10.3281 34.9531 10.25 34.8047C10.1484 34.6094 10.1484 33.9688 10.25 33.7734C10.3281 33.6328 10.4375 33.625 12.1172 33.625C13.7578 33.625 13.9219 33.6094 14.0859 33.4766C14.2266 33.3672 14.2734 33.25 14.2734 33C14.2734 32.4766 14.0859 32.375 13.0938 32.375H12.2812V22.1406V11.9062H26.9297H41.5781V12.5156ZM41.0156 14.2891C42.25 14.6797 43.2422 15.5391 43.8047 16.7109C44.1406 17.4062 44.3125 18.0547 44.3125 18.6406V18.9375L44 18.7812C43.5859 18.5703 43.1172 18.0859 42.9219 17.6641C42.5938 16.9609 42.2734 16.9375 41.3828 17.5547C40.5312 18.1406 39.2656 18.7969 38.4141 19.0938C36.8125 19.6484 35.5156 19.75 34.2969 19.4062L34 19.3203V18.8281C34 17.1172 34.9141 15.5391 36.3984 14.6641C36.5859 14.5547 36.9922 14.3828 37.3047 14.2812C37.7969 14.125 38.0234 14.1016 39.1328 14.0938C40.2734 14.0938 40.4609 14.1172 41.0156 14.2891ZM42.1094 18.7969C42.1797 18.8672 42.2031 19.3438 42.2031 20.4766C42.2031 21.8516 42.1797 22.1094 42.0547 22.4531C41.8594 22.9609 41.4766 23.4297 40.7266 24.0703C39.4375 25.1797 38.8359 25.1562 37.4766 23.9453C36.4375 23.0156 36.1094 22.375 36.1094 21.2812V20.8125H36.4531C36.8984 20.8125 37.7656 20.6328 38.6016 20.3672C39.2969 20.1484 41.1875 19.2422 41.6562 18.9062C41.9766 18.6797 41.9844 18.6719 42.1094 18.7969ZM34.7266 20.7812C34.8359 20.8125 34.8594 20.9141 34.8594 21.3828C34.8594 22.0547 35.0234 22.7891 35.2812 23.2969C35.4766 23.6797 36.1016 24.4453 36.3672 24.6328C36.4922 24.7188 36.5078 24.8047 36.4844 25.125C36.4609 25.3359 36.4141 25.5391 36.375 25.5781C36.3203 25.6328 34.2109 26.125 34.0391 26.125C34.0156 26.125 34 24.8906 34 23.3828V20.6406L34.2969 20.6875C34.4531 20.7188 34.6484 20.7578 34.7266 20.7812ZM39.3047 26.1094C39.7891 26.0859 40.0703 26.0312 40.2969 25.9062L40.625 25.7422L40.7188 25.9766C40.9766 26.5938 41.25 26.7578 42.4609 27.0234C42.9375 27.1328 43.4141 27.2422 43.5156 27.2578C43.7422 27.3125 43.7344 27.3984 43.4141 28.0703C42.9141 29.1094 41.9609 29.8672 40.6406 30.2734C40.1719 30.4219 39.875 30.4609 39.1562 30.4609C38.4375 30.4609 38.1406 30.4219 37.6719 30.2734C36.3516 29.8672 35.3984 29.1094 34.8984 28.0703C34.5781 27.3984 34.5703 27.3125 34.8047 27.2578C34.8984 27.2422 35.375 27.1328 35.8672 27.0234C36.9141 26.7969 37.2891 26.5859 37.5234 26.0938L37.6875 25.7578L38.1641 25.9531C38.5703 26.1172 38.7266 26.1406 39.3047 26.1094ZM33.5234 28.0625C33.6953 28.6328 34.1172 29.3438 34.5938 29.875C35.2344 30.5781 36.4453 31.2734 37.5547 31.5625C38.3125 31.7578 40 31.7578 40.7578 31.5625C42.7188 31.0469 44.2656 29.7109 44.7891 28.0781L44.9609 27.5547L45.4297 27.6641C46.3984 27.8828 47.0547 28.4297 47.375 29.2656C47.5156 29.6406 47.5391 30.0156 47.6406 33.3125C47.7969 38.5547 47.7891 39.2969 47.5859 39.8359C47.375 40.3984 46.7734 41.0625 46.2266 41.3203C45.9922 41.4297 45.7891 41.5156 45.7656 41.5156C45.7422 41.5156 45.7109 39.7188 45.7031 37.5234L45.6797 33.5312L45.4922 33.3828C45.25 33.1875 44.8281 33.1875 44.625 33.3906C44.4766 33.5391 44.4688 33.6484 44.4688 37.5703V41.5938H39.7422C35.9453 41.5938 34.9609 41.5703 34.7578 41.4844C34.4219 41.3516 34.0312 40.8906 33.9297 40.5234C33.875 40.3359 33.8438 38.9766 33.8438 36.8828C33.8438 33.6484 33.8359 33.5391 33.6875 33.3906C33.4844 33.1875 33.0625 33.1875 32.8203 33.3828C32.6562 33.5156 32.6328 33.6094 32.6094 34.2422L32.5781 34.9531H31.1094C29.6484 34.9531 29.6406 34.9531 29.2266 34.7344C28.875 34.5469 24.8125 31.9609 24.7109 31.8594C24.6875 31.8438 24.7812 31.7109 24.9141 31.5703C25.1797 31.2969 25.7188 30.4766 25.7188 30.3516C25.7188 30.3125 26.3594 30.7109 27.1406 31.25C29.0078 32.5391 29.1484 32.6016 29.6953 32.4531C30.4297 32.2578 30.6406 31.8828 30.7266 30.625C30.7656 30.1016 30.8516 29.5156 30.9219 29.3125C31.1875 28.5 31.8516 27.9297 32.8281 27.6719C33.1094 27.6016 33.3438 27.5391 33.3516 27.5391C33.3516 27.5312 33.4297 27.7734 33.5234 28.0625ZM24.125 29.2109C24.6562 29.5234 24.6875 29.6562 24.3672 30.1719C24.2188 30.4219 24 30.6875 23.8984 30.7656C23.6953 30.9141 23.6953 30.9141 23.3125 30.6641C22.6797 30.2578 22.5625 29.7344 23.0156 29.2812C23.3438 28.9531 23.6484 28.9375 24.125 29.2109ZM39.6094 42.8281C43.4922 42.8438 44.625 42.8672 44.625 42.9453C44.6328 43 44.7266 43.8594 44.8438 44.8516L45.0625 46.6719H39.1562H33.25L33.4609 44.7812C33.5859 43.7422 33.7188 42.7969 33.7656 42.6797L33.8594 42.4688L34.2188 42.6328C34.5781 42.8047 34.6484 42.8047 39.6094 42.8281Z" fill="#151515"/>
<path d="M14.7188 14.25C14.461 14.4922 14.4844 14.9688 14.75 15.1797C14.961 15.3438 14.9922 15.3438 22.5313 15.3438H30.1016L30.2891 15.1484C30.4141 15.0312 30.4844 14.8672 30.4844 14.7188C30.4844 14.5703 30.4141 14.4062 30.2891 14.2891L30.1016 14.0938H22.4922C14.9454 14.0938 14.8907 14.0938 14.7188 14.25Z" fill="#151515"/>
<path d="M14.7188 18.3359C14.4688 18.6016 14.4844 19.0312 14.75 19.2422C14.961 19.4062 14.9922 19.4062 22.5313 19.4062H30.1016L30.2891 19.2109C30.4141 19.0938 30.4844 18.9297 30.4844 18.7812C30.4844 18.6328 30.4141 18.4688 30.2891 18.3516L30.1016 18.1562H22.4922H14.8828L14.7188 18.3359Z" fill="#151515"/>
<path d="M14.75 22.3828C14.5938 22.5078 14.5469 22.6094 14.5469 22.8438C14.5469 23.0781 14.5938 23.1797 14.75 23.3047C14.9531 23.4688 15.0312 23.4688 18.8047 23.4688C22.5781 23.4688 22.6562 23.4688 22.8594 23.3047C23.1484 23.0781 23.1484 22.6094 22.8594 22.3828C22.6562 22.2188 22.5781 22.2188 18.8047 22.2188C15.0312 22.2188 14.9531 22.2188 14.75 22.3828Z" fill="#151515"/>
</g>
</g>
<defs>
<clipPath id="clip0_4655_1729">
<rect width="56" height="56" fill="white" transform="translate(0.94873)"/>
</clipPath>
<clipPath id="clip1_4655_1729">
<rect width="40" height="40" fill="white" transform="translate(9 8)"/>
</clipPath>
</defs>
</svg>
