<svg width="57" height="56" viewBox="0 0 57 56" fill="none" xmlns="http://www.w3.org/2000/svg">
<rect width="56" height="56" transform="translate(0.94873)" fill="#FCF8F7"/>
<path d="M27.1876 30.1211H4.01779V30.0611C9.90028 28.1603 14.3322 23.9085 14.3322 17.1156C14.3322 14.0043 13.3317 10.2127 9.25001 6.61118C7.62013 7.83601 6.29849 9.42421 5.39018 11.2495C4.48188 13.0748 4.01196 15.0868 4.01779 17.1256V32.5122C3.96937 34.2657 4.27292 36.0111 4.91051 37.6453C5.5481 39.2795 6.5068 40.7693 7.72994 42.0267C8.95309 43.284 10.4159 44.2835 12.0318 44.966C13.6478 45.6484 15.3842 46.0001 17.1384 46.0001C18.8925 46.0001 20.6289 45.6484 22.2449 44.966C23.8608 44.2835 25.3236 43.284 26.5468 42.0267C27.7699 40.7693 28.7286 39.2795 29.3662 37.6453C30.0038 36.0111 30.3073 34.2657 30.2589 32.5122V29.4409C29.3058 29.9144 28.2515 30.1479 27.1876 30.1211Z" fill="#FDD5A9"/>
<path d="M17.0855 4.00001C14.254 3.9964 11.4979 4.91276 9.23222 6.61112C13.334 10.2126 14.3144 14.0043 14.3144 17.1156C14.3144 23.9084 9.88249 28.1202 4 30.0611V30.1211H27.1898C28.2302 30.1366 29.2591 29.9033 30.1911 29.4408V17.1256C30.1911 13.6479 28.811 10.3124 26.3538 7.85147C23.8966 5.39052 20.5632 4.00531 17.0855 4.00001Z" fill="#E9A0A7"/>
<g clip-path="url(#clip0_4655_1709)">
<path d="M33.6172 8.90625C32.5781 9.1875 31.8125 9.84375 31.2422 10.9453C31.0391 11.3359 30.625 12.3203 30.3203 13.1328C29.1328 16.2734 28.0469 18.0703 26.3984 19.6094C25.4297 20.5078 24.3203 21.2109 22.2969 22.1953C21.2891 22.6797 20.4609 23.0781 20.4375 23.0781C20.4219 23.0781 20.4062 22.9531 20.4062 22.8047C20.4062 22.3047 20.0469 21.7734 19.5312 21.5078C19.2578 21.3672 19.0391 21.3594 16.2109 21.3594C13.8359 21.3594 13.0859 21.3828 12.7578 21.4766C11.3359 21.8516 10.1562 23.0703 9.86719 24.4688C9.80469 24.7578 9.78125 27.6641 9.78125 34C9.78125 42.6406 9.78906 43.1484 9.92969 43.6406C10.3359 45.1094 11.6797 46.2969 13.1797 46.5156C13.8516 46.6094 18.7734 46.6172 19.1797 46.5234C19.7969 46.375 20.3047 45.8516 20.3828 45.2734C20.4062 45.0938 20.4453 44.9531 20.4609 44.9531C20.5234 44.9531 22.4375 45.4453 24.2734 45.9297C28.9922 47.1875 29.2969 47.2188 36.1562 47.2188C41.1172 47.2188 41.3516 47.2109 41.8359 47.0625C43.8438 46.4453 44.7969 44.0625 43.8203 42.1328L43.5625 41.625L43.875 41.4688C44.5859 41.1328 45.3594 40.1094 45.5547 39.2422C45.75 38.3906 45.5703 37.2109 45.1484 36.5938L44.9609 36.3281L45.2422 36.1797C45.7031 35.9375 46.1797 35.5078 46.4688 35.0781C47.2109 33.9844 47.2422 32.3203 46.5391 31.2031L46.3516 30.9062L46.7656 30.625C47.2812 30.2734 47.6094 29.8672 47.9297 29.1875C48.1641 28.6953 48.1797 28.6172 48.1797 27.7656C48.1797 27.0234 48.1484 26.7969 48 26.4375C47.6562 25.5703 46.8984 24.8203 46.0312 24.4609C45.6016 24.2891 45.5703 24.2891 40.75 24.2656L35.8906 24.2422L36.2422 23.7188C36.7578 22.9453 37.4766 21.4375 37.7812 20.4922C38.125 19.4453 38.3438 18.3203 38.4531 17.0547C38.5625 15.7344 38.5391 12.4844 38.4141 11.8203C37.9922 9.67969 35.7656 8.32812 33.6172 8.90625ZM35.6172 10.6953C36.1094 10.9375 36.5312 11.4062 36.6953 11.8984C36.8438 12.3672 36.8828 16.4141 36.7344 17.5312C36.5312 19.125 35.9453 20.9062 35.1953 22.1797C35.0156 22.4766 34.5391 23.1953 34.125 23.7734C33.3125 24.9141 33.25 25.0938 33.5312 25.5547C33.6172 25.6953 33.7656 25.8281 33.8594 25.8516C33.9609 25.875 36.5547 25.8984 39.625 25.9141C45.1797 25.9297 45.2109 25.9297 45.5234 26.1016C46.8828 26.8281 46.8906 28.7422 45.5312 29.375C45.1328 29.5625 45.1094 29.5625 42.5078 29.5625C39.9062 29.5625 39.8828 29.5625 39.6172 29.7422C39.2656 29.9766 39.1484 30.3906 39.3359 30.7812C39.5625 31.25 39.7422 31.2812 42.0078 31.2812C43.6328 31.2812 44.0547 31.3047 44.2969 31.4062C45.4688 31.8906 45.75 33.5312 44.8047 34.4219C44.3438 34.8594 44.2422 34.875 41.3047 34.875C38.4062 34.875 38.2188 34.8984 37.9531 35.2734C37.75 35.5703 37.7891 36 38.0547 36.2969L38.2812 36.5547L40.5 36.5938L42.7109 36.6328L43.0781 36.8516C43.5 37.0938 43.8203 37.5781 43.9375 38.125C44.0859 38.8125 43.6484 39.6875 42.9609 40.0547C42.6406 40.2188 42.5391 40.2266 39.7188 40.2656L36.7969 40.3047L36.6094 40.5234C36.4062 40.7578 36.3516 41.2422 36.5 41.5156C36.6719 41.8438 36.8438 41.8672 39.1328 41.9062L41.3281 41.9453L41.6641 42.1797C42.1719 42.5391 42.4531 42.9844 42.5 43.5078C42.5703 44.3281 42.2188 45.0078 41.5547 45.3672L41.2266 45.5391H35.9531C29.6719 45.5312 29.3359 45.5078 25.9922 44.6328C25.3516 44.4609 23.8281 44.0703 22.6172 43.7578L20.4062 43.1953V34.0938V24.9922L22.3438 24.0625C25.5547 22.5156 26.4688 21.9375 27.8672 20.5391C29.6797 18.7422 30.5938 17.1875 31.9375 13.6562C32.7656 11.4688 32.9609 11.125 33.5781 10.7656C34.2578 10.3672 34.8984 10.3438 35.6172 10.6953ZM18.7656 33.9375V44.8828L15.9766 44.8594C13.25 44.8359 13.1719 44.8281 12.8203 44.6562C12.3281 44.4141 11.9062 43.9844 11.6641 43.4688L11.4609 43.0391L11.4375 34.1719C11.4219 28.0156 11.4453 25.1797 11.5078 24.8984C11.6641 24.125 12.2969 23.4141 13.0781 23.1484C13.4453 23.0234 13.7812 23.0078 16.1328 23H18.7656V33.9375Z" fill="#151515"/>
</g>
<defs>
<clipPath id="clip0_4655_1709">
<rect width="40" height="40" fill="white" transform="translate(9 8)"/>
</clipPath>
</defs>
</svg>
