<svg width="57" height="56" viewBox="0 0 57 56" fill="none" xmlns="http://www.w3.org/2000/svg">
<rect width="56" height="56" transform="translate(0.94873)" fill="#FCF8F7"/>
<path d="M26.9359 26.1213H3.76611V26.0613C9.6486 24.1605 14.0805 19.9087 14.0805 13.1158C14.0805 10.0045 13.0801 6.21285 8.99833 2.61133C7.36845 3.83616 6.04681 5.42436 5.1385 7.24966C4.2302 9.07495 3.76028 11.087 3.76611 13.1258V28.5123C3.71769 30.2658 4.02124 32.0112 4.65883 33.6454C5.29642 35.2796 6.25512 36.7694 7.47826 38.0268C8.70141 39.2842 10.1642 40.2837 11.7802 40.9661C13.3961 41.6486 15.1325 42.0002 16.8867 42.0002C18.6408 42.0002 20.3772 41.6486 21.9932 40.9661C23.6092 40.2837 25.0719 39.2842 26.2951 38.0268C27.5182 36.7694 28.4769 35.2796 29.1145 33.6454C29.7521 32.0112 30.0557 30.2658 30.0072 28.5123V25.441C29.0542 25.9146 27.9998 26.1481 26.9359 26.1213Z" fill="#FDD5A9"/>
<path d="M16.8343 1.0629e-05C14.0028 -0.00359998 11.2467 0.912758 8.981 2.61112C13.0827 6.21264 14.0632 10.0043 14.0632 13.1156C14.0632 19.9084 9.63127 24.1202 3.74878 26.0611V26.1211H26.9386C27.9789 26.1366 29.0079 25.9033 29.9399 25.4408V13.1256C29.9399 9.64792 28.5598 6.31241 26.1026 3.85147C23.6454 1.39052 20.312 0.00531193 16.8343 1.0629e-05Z" fill="#E9A0A7"/>
<path d="M10.8828 11.3047C10.7187 11.4844 10.7031 11.6562 10.4844 15.0781C10.2187 19.2031 10.2031 19.9531 10.3672 20.4297C10.6719 21.2969 11.5078 22.0859 12.3594 22.3047L12.75 22.4062V25.5156C12.75 28.5703 12.75 28.625 12.5937 28.625C12.5078 28.625 12.3672 28.6953 12.2812 28.7812C12.125 28.9375 12.125 29.039 12.125 35.3047C12.125 41.5625 12.125 41.6719 12.289 42.1015C12.75 43.3359 14.2656 43.9609 15.5937 43.4609C16.1172 43.2656 16.6797 42.75 16.914 42.2344C17.0781 41.8906 17.0859 41.7187 17.125 39.5859L17.164 37.2969L17.7344 37.9609C20.0156 40.625 23.5625 42.4765 27.2187 42.9219C28.2265 43.0469 30.6797 42.9844 31.6562 42.8047C35.8828 42.039 39.6328 39.4687 41.8594 35.8047C42.1015 35.4062 42.3984 34.8672 42.5234 34.6094L42.75 34.1328V37.8984C42.75 41.5234 42.7578 41.6797 42.914 42.1015C43.6719 44.1328 46.8281 44.1328 47.5859 42.1015L47.75 41.664V26.5547C47.75 11.539 47.75 11.4375 47.5937 11.2812C47.4531 11.1406 47.3359 11.125 46.2422 11.125C44.8125 11.125 44.1719 11.2578 43.1953 11.7656C42.3047 12.2265 41.3515 13.1797 40.8906 14.0703C40.4062 15.0078 40.25 15.7031 40.25 16.9375V17.9531L39.6875 17.4062C37.4765 15.2422 34.9687 13.8984 31.9687 13.25C31.0547 13.0547 30.8672 13.039 29 13.039C27.1328 13.039 26.9453 13.0547 26.0312 13.25C23.5625 13.7812 21.1797 14.9219 19.4375 16.3984C19.1484 16.6406 18.8984 16.8281 18.8906 16.8125C18.875 16.8047 18.7969 15.5937 18.7031 14.1406C18.5469 11.6328 18.5312 11.4844 18.3672 11.3125C18.0625 10.9922 17.4297 11.0859 17.2812 11.4765C17.2344 11.5937 17.2812 12.7344 17.3984 14.5781C17.6484 18.3594 17.664 17.9765 17.2656 18.1562C16.8906 18.3203 15.8515 18.5469 15.4844 18.5469H15.25V14.9922C15.25 11.539 15.2422 11.4297 15.0937 11.2812C14.9922 11.1797 14.8359 11.125 14.625 11.125C14.414 11.125 14.2578 11.1797 14.1562 11.2812C14.0078 11.4297 14 11.539 14 14.9922V18.5469H13.7734C13.3906 18.5469 12.375 18.3281 12.0078 18.164C11.5859 17.9765 11.6015 18.3672 11.8515 14.5781C11.9687 12.7344 12.0156 11.5937 11.9687 11.4765C11.8203 11.0937 11.1875 10.9922 10.8828 11.3047ZM46.5 20.5V28.625H44H41.5V22.8203C41.5 19.6328 41.5312 16.7422 41.5703 16.3906C41.7344 14.9765 42.3906 13.8906 43.5547 13.1172C44.2422 12.664 45.1015 12.4219 46.2109 12.3828L46.5 12.375V20.5ZM31.6719 14.5625C33.4453 14.9219 35.4609 15.789 36.8906 16.8047C37.7969 17.4609 39.0937 18.6875 39.75 19.5312L40.25 20.1719V24.8672C40.25 29.4609 40.25 29.5625 40.4062 29.7187C40.5469 29.8594 40.664 29.875 41.5781 29.875H42.5937L42.5469 30.125C42.414 30.8828 42.0937 32.0703 41.8437 32.7422C40.3828 36.6484 37.2344 39.6875 33.2969 41C31.6875 41.539 31.0547 41.625 29 41.625C27.3828 41.625 27.0703 41.6094 26.3437 41.4531C24.4844 41.0469 22.5469 40.2109 21.1094 39.1875C19.7734 38.2344 18.3437 36.7422 17.4453 35.3515L17.125 34.8515V31.8906C17.125 29.039 17.1172 28.9297 16.9687 28.7812C16.8828 28.6953 16.7422 28.625 16.6562 28.625C16.5 28.625 16.5 28.5703 16.5 25.5156V22.4062L16.8906 22.3047C17.4531 22.164 18.1484 21.6719 18.4844 21.1797C18.8906 20.5859 19 20.2031 19 19.3672V18.6406L19.6875 17.9922C21.4687 16.2969 23.8594 15.0703 26.3437 14.5625C27.9219 14.2422 30.0703 14.2422 31.6719 14.5625ZM12.6172 19.7265C13.3125 19.8672 13.6015 19.8828 14.8984 19.8515C16.25 19.8125 16.7734 19.75 17.539 19.5156C17.8515 19.4219 17.5859 20.2656 17.1875 20.625C16.7109 21.0703 16.6015 21.0859 14.625 21.0859C12.8906 21.0859 12.7734 21.0781 12.4765 20.914C11.9609 20.6406 11.5781 20.1094 11.5781 19.6719C11.5781 19.5156 11.6094 19.4765 11.7031 19.5156C11.7656 19.539 12.1797 19.6328 12.6172 19.7265ZM15.25 25.5V28.625H14.625H14V25.5V22.375H14.625H15.25V25.5ZM15.8594 35.6328C15.8359 41.289 15.8359 41.4062 15.6719 41.6719C15.1797 42.5078 14.0703 42.5078 13.5781 41.6719C13.414 41.4062 13.414 41.289 13.3906 35.6328L13.3672 29.875H14.625H15.8828L15.8594 35.6328ZM46.4844 35.6328C46.4609 41.289 46.4609 41.4062 46.2969 41.6719C45.8047 42.5078 44.6953 42.5078 44.2031 41.6719C44.039 41.4062 44.039 41.289 44.0156 35.6328L43.9922 29.875H45.25H46.5078L46.4844 35.6328Z" fill="#151515"/>
<path d="M27.1953 18.125C25.2031 18.4844 23.4297 19.4141 21.9453 20.875C21.125 21.6875 20.5469 22.4766 20.0625 23.4297C19.3125 24.9219 19 26.2734 19 28C19 29.7109 19.2969 31.0078 20.0156 32.4766C20.9688 34.3984 22.6953 36.1172 24.6094 37.0312C26.0312 37.7109 27.3516 38 29 38C31.7344 38 34.0234 37.0859 35.9609 35.2109C36.8281 34.3672 37.4375 33.5547 37.9375 32.5703C38.6875 31.0781 39 29.7266 39 28C39 25.875 38.4688 24.1172 37.2969 22.3359C36.8281 21.625 35.3672 20.1719 34.6484 19.6953C33.4609 18.9062 32.0781 18.3516 30.7656 18.1172C29.9062 17.9688 28.0234 17.9688 27.1953 18.125ZM30.0625 19.3672C30.7578 19.4297 31.8984 19.7578 32.6328 20.1016C34.7109 21.0703 36.3594 22.8516 37.1484 24.9688C37.5547 26.0547 37.6328 26.5391 37.6328 28.0391C37.6328 29.3281 37.6094 29.5078 37.4141 30.2109C36.4844 33.5625 33.7266 36.0469 30.3281 36.6016C29.5781 36.7188 28.1016 36.6953 27.3906 36.5547C25.6094 36.1875 24.1172 35.3906 22.8594 34.1406C19.4531 30.7266 19.4531 25.2656 22.8594 21.8594C24.3125 20.4062 26.2109 19.5156 28.2188 19.3281C28.8672 19.2734 29.0938 19.2812 30.0625 19.3672Z" fill="#151515"/>
</svg>
