<svg width="136" height="40" viewBox="0 0 136 40" fill="none" xmlns="http://www.w3.org/2000/svg">
<g id="Badges" clip-path="url(#clip0_4655_1828)">
<path id="Vector" fill-rule="evenodd" clip-rule="evenodd" d="M130.611 40H5.61463C2.85791 40 0.612793 37.7456 0.612793 35V5C0.612793 2.24439 2.85791 0 5.61463 0H130.611C133.365 0 135.613 2.24439 135.613 5V35C135.613 37.7456 133.365 40 130.611 40Z" fill="black"/>
<path id="Vector_2" fill-rule="evenodd" clip-rule="evenodd" d="M130.611 0.800499C132.923 0.800499 134.816 2.68828 134.816 5V35C134.816 37.3117 132.936 39.1995 130.611 39.1995H5.61463C3.30246 39.1995 1.41001 37.3117 1.41001 35V5C1.41001 2.68828 3.29004 0.800499 5.61463 0.800499H130.611ZM130.611 0H5.61463C2.85791 0 0.612793 2.25436 0.612793 5V35C0.612793 37.7556 2.85791 40 5.61463 40H130.611C133.365 40 135.613 37.7556 135.613 35V5C135.613 2.25436 133.365 0 130.611 0Z" fill="#A6A6A6"/>
<path id="Vector_3" d="M71.7311 13.2318C70.8296 13.2318 70.0697 12.9151 69.4687 12.2917C68.8726 11.6857 68.5398 10.8503 68.5547 9.99742C68.5547 9.0872 68.8627 8.31663 69.4687 7.70565C70.0672 7.08221 70.8271 6.7655 71.7287 6.7655C72.6202 6.7655 73.3802 7.08221 73.9911 7.70565C74.5971 8.33658 74.9051 9.10715 74.9051 9.99742C74.8951 10.9101 74.5872 11.6807 73.9911 12.2892C73.3926 12.9176 72.6327 13.2318 71.7311 13.2318ZM44.9066 13.2318C44.025 13.2318 43.2601 12.9201 42.6342 12.3042C42.0133 11.6907 41.6979 10.9151 41.6979 9.99992C41.6979 9.08471 42.0133 8.30914 42.6342 7.69568C43.2477 7.07972 44.0126 6.768 44.9066 6.768C45.3437 6.768 45.7684 6.85528 46.1757 7.03234C46.5756 7.20441 46.9009 7.43882 47.1418 7.7256L47.2014 7.79792L46.5284 8.46126L46.4588 8.37897C46.0789 7.9251 45.5697 7.70316 44.8967 7.70316C44.2957 7.70316 43.7717 7.91762 43.3395 8.34156C42.9049 8.768 42.6839 9.3266 42.6839 10.0024C42.6839 10.6782 42.9049 11.2368 43.3395 11.6633C43.7717 12.0872 44.2957 12.3017 44.8967 12.3017C45.5375 12.3017 46.0764 12.0872 46.4961 11.6633C46.7444 11.4139 46.8984 11.0648 46.9531 10.6234H44.7949V9.69069H47.8794L47.8918 9.77548C47.9142 9.93259 47.9365 10.0947 47.9365 10.2443C47.9365 11.1047 47.6783 11.8004 47.1666 12.3141C46.5855 12.9226 45.8255 13.2318 44.9066 13.2318ZM80.5725 13.0997H79.6213L76.7081 8.41887L76.733 9.26176V13.0972H75.7818V6.90017H76.8671L76.8969 6.94755L79.6362 11.3565L79.6113 10.5161V6.90017H80.5725V13.0997ZM64.5836 13.0997H63.62V7.83284H61.9486V6.90017H66.2525V7.83284H64.5811V13.0997H64.5836ZM61.1638 13.0997H60.2026V6.90017H61.1638V13.0997ZM55.7621 13.0997H54.801V7.83284H53.1296V6.90017H57.4335V7.83284H55.7621V13.0997ZM52.5211 13.0897H48.8356V6.90017H52.5211V7.83284H49.7992V9.53358H52.2554V10.4563H49.7992V12.157H52.5211V13.0897ZM70.174 11.6508C70.6036 12.0822 71.1252 12.2992 71.7311 12.2992C72.3545 12.2992 72.8636 12.0872 73.2883 11.6508C73.7105 11.2269 73.9241 10.6707 73.9241 9.99992C73.9241 9.32909 73.7105 8.77049 73.2908 8.34904C72.8611 7.91762 72.3371 7.70066 71.7336 7.70066C71.1103 7.70066 70.6011 7.91264 70.1789 8.34904C69.7567 8.77298 69.5432 9.32909 69.5432 9.99992C69.5432 10.6707 69.7543 11.2293 70.174 11.6508Z" fill="white"/>
<path id="Vector_4" fill-rule="evenodd" clip-rule="evenodd" d="M68.4654 21.7557C66.1184 21.7557 64.216 23.5437 64.216 26.01C64.216 28.4539 66.1308 30.2644 68.4654 30.2644C70.8123 30.2644 72.7147 28.4639 72.7147 26.01C72.7147 23.5437 70.8123 21.7557 68.4654 21.7557ZM68.4654 28.5786C67.1814 28.5786 66.0762 27.5113 66.0762 26.0001C66.0762 24.4664 67.1839 23.4215 68.4654 23.4215C69.7494 23.4215 70.8545 24.4664 70.8545 26.0001C70.857 27.5212 69.7494 28.5786 68.4654 28.5786ZM59.1943 21.7557C56.8474 21.7557 54.945 23.5437 54.945 26.01C54.945 28.4539 56.8598 30.2644 59.1943 30.2644C61.5413 30.2644 63.4436 28.4639 63.4436 26.01C63.4436 23.5437 61.5388 21.7557 59.1943 21.7557ZM59.1943 28.5786C57.9103 28.5786 56.8051 27.5113 56.8051 26.0001C56.8051 24.4664 57.9128 23.4215 59.1943 23.4215C60.4783 23.4215 61.5835 24.4664 61.5835 26.0001C61.5835 27.5212 60.4783 28.5786 59.1943 28.5786ZM48.1624 23.0549V24.8554H52.4664C52.3348 25.8654 52.002 26.611 51.4929 27.1222C50.862 27.7557 49.8885 28.4439 48.1724 28.4439C45.5274 28.4439 43.4586 26.2993 43.4586 23.6434C43.4586 20.9876 45.5274 18.8429 48.1724 18.8429C49.6004 18.8429 50.641 19.409 51.4134 20.1322L52.685 18.8554C51.6121 17.823 50.184 17.0325 48.1823 17.0325C44.5539 17.0325 41.509 20.0001 41.509 23.6335C41.509 27.2769 44.5514 30.2345 48.1823 30.2345C50.1418 30.2345 51.6121 29.5911 52.7744 28.3791C53.959 27.1896 54.334 25.5113 54.334 24.1572C54.334 23.7357 54.3017 23.3567 54.2347 23.035H48.16C48.1624 23.0325 48.1624 23.0549 48.1624 23.0549ZM93.2858 24.4564C92.9307 23.5013 91.8578 21.7457 89.6574 21.7457C87.4768 21.7457 85.6639 23.4689 85.6639 26.0001C85.6639 28.3891 87.457 30.2544 89.8685 30.2544C91.8056 30.2544 92.9332 29.0649 93.3976 28.3666L91.9596 27.3991C91.4828 28.1098 90.8197 28.5761 89.8784 28.5761C88.9272 28.5761 88.2616 28.1422 87.8196 27.2868L93.4845 24.9302C93.4845 24.9327 93.2858 24.4564 93.2858 24.4564ZM87.5091 25.8779C87.4644 24.2345 88.7807 23.3991 89.722 23.3991C90.4645 23.3991 91.0829 23.7656 91.294 24.2993L87.5091 25.8779ZM82.9071 30.0001H84.7673V17.5013H82.9071V30.0001ZM79.8524 22.7008H79.7853C79.3656 22.1996 78.5684 21.7457 77.5501 21.7457C75.4366 21.7457 73.4896 23.6135 73.4896 26.0125C73.4896 28.4015 75.4267 30.2469 77.5501 30.2469C78.556 30.2469 79.3656 29.7906 79.7853 29.2794H79.8524V29.8903C79.8524 31.5138 78.9881 32.3891 77.5948 32.3891C76.4549 32.3891 75.7471 31.5661 75.459 30.8779L73.8422 31.5562C74.3066 32.6784 75.5459 34.0674 77.5924 34.0674C79.7729 34.0674 81.6207 32.7781 81.6207 29.6335V22.0001H79.8623V22.7008C79.8648 22.7008 79.8524 22.7008 79.8524 22.7008ZM77.7165 28.5786C76.4326 28.5786 75.3597 27.5013 75.3597 26.0125C75.3597 24.5113 76.4326 23.424 77.7165 23.424C78.9881 23.424 79.9741 24.5237 79.9741 26.0125C79.9865 27.5013 78.9906 28.5786 77.7165 28.5786ZM101.996 17.5013H97.5476V30.0001H99.4078V25.2669H101.998C104.057 25.2669 106.081 23.7681 106.081 21.3891C106.081 19.01 104.064 17.5013 101.996 17.5013ZM102.05 23.5212H99.4053V19.232H102.05C103.444 19.232 104.231 20.3866 104.231 21.3766C104.231 22.3567 103.434 23.5212 102.05 23.5212ZM113.537 21.7332C112.186 21.7332 110.792 22.3342 110.216 23.6434L111.865 24.3317C112.22 23.6434 112.871 23.409 113.559 23.409C114.523 23.409 115.496 23.9876 115.518 25.02V25.1522C115.186 24.9626 114.456 24.6734 113.581 24.6734C111.801 24.6734 109.995 25.6509 109.995 27.4838C109.995 29.1621 111.455 30.2395 113.082 30.2395C114.331 30.2395 115.019 29.6734 115.449 29.0175H115.516V29.9851H117.309V25.1971C117.309 22.9676 115.66 21.7332 113.537 21.7332ZM113.303 28.5786C112.695 28.5786 111.843 28.2794 111.843 27.5113C111.843 26.5437 112.906 26.1771 113.812 26.1771C114.632 26.1771 115.019 26.3542 115.506 26.5986C115.372 27.7207 114.428 28.5686 113.303 28.5786ZM123.851 22.0001L121.715 27.4215H121.648L119.435 22.0001H117.433L120.754 29.5786L118.861 33.7906H120.798L125.907 22.0001H123.851ZM107.107 30.0001H108.967V17.5013H107.107V30.0001Z" fill="white"/>
<path id="Vector_5" fill-rule="evenodd" clip-rule="evenodd" d="M11.0039 7.53364C10.7158 7.84536 10.5494 8.32167 10.5494 8.94511V31.0573C10.5494 31.6808 10.7158 32.1571 11.0139 32.4563L11.0908 32.5237L23.4291 20.1346V19.8578L11.0809 7.46631L11.0039 7.53364Z" fill="url(#paint0_linear_4655_1828)"/>
<path id="Vector_6" fill-rule="evenodd" clip-rule="evenodd" d="M27.5342 24.2768L23.419 20.1446V19.8553L27.5342 15.7231L27.6237 15.778L32.4914 18.5561C33.8847 19.3441 33.8847 20.6458 32.4914 21.4438L27.6237 24.2219L27.5342 24.2768Z" fill="url(#paint1_linear_4655_1828)"/>
<path id="Vector_7" fill-rule="evenodd" clip-rule="evenodd" d="M27.6237 24.2219L23.419 20L11.0038 32.4663C11.4583 32.9551 12.2208 33.01 13.0726 32.5337L27.6237 24.2219Z" fill="url(#paint2_linear_4655_1828)"/>
<path id="Vector_8" fill-rule="evenodd" clip-rule="evenodd" d="M27.6237 15.7781L13.0726 7.47882C12.2208 6.99004 11.4558 7.05737 11.0038 7.54615L23.419 20L27.6237 15.7781Z" fill="url(#paint3_linear_4655_1828)"/>
<path id="Vector_9" opacity="0.2" fill-rule="evenodd" clip-rule="evenodd" d="M27.5343 24.1322L13.0825 32.3766C12.2754 32.8429 11.5551 32.8105 11.0907 32.3865L11.0137 32.4638L11.0907 32.5312C11.5551 32.9526 12.2754 32.9875 13.0825 32.5212L27.6336 24.222L27.5343 24.1322Z" fill="black"/>
<path id="Vector_10" opacity="0.12" fill-rule="evenodd" clip-rule="evenodd" d="M32.4915 21.2993L27.5219 24.1322L27.6113 24.2219L32.479 21.4439C33.1769 21.0449 33.5196 20.5212 33.5196 20C33.4774 20.4788 33.1223 20.9327 32.4915 21.2993Z" fill="black"/>
<path id="Vector_11" opacity="0.25" fill-rule="evenodd" clip-rule="evenodd" d="M13.0727 7.62342L32.4915 18.7007C33.1223 19.0573 33.4774 19.5237 33.5321 20C33.5321 19.4788 33.1893 18.9551 32.4915 18.5561L13.0727 7.47878C11.6794 6.67828 10.5494 7.34661 10.5494 8.94511V9.08975C10.5494 7.48875 11.6794 6.83289 13.0727 7.62342Z" fill="white"/>
</g>
<defs>
<linearGradient id="paint0_linear_4655_1828" x1="22.3223" y1="8.70654" x2="2.54793" y2="13.9538" gradientUnits="userSpaceOnUse">
<stop stop-color="#00A0FF"/>
<stop offset="0.00657" stop-color="#00A1FF"/>
<stop offset="0.2601" stop-color="#00BEFF"/>
<stop offset="0.5122" stop-color="#00D2FF"/>
<stop offset="0.7604" stop-color="#00DFFF"/>
<stop offset="1" stop-color="#00E3FF"/>
</linearGradient>
<linearGradient id="paint1_linear_4655_1828" x1="34.3084" y1="20" x2="10.2106" y2="20" gradientUnits="userSpaceOnUse">
<stop stop-color="#FFE000"/>
<stop offset="0.4087" stop-color="#FFBD00"/>
<stop offset="0.7754" stop-color="#FFA500"/>
<stop offset="1" stop-color="#FF9C00"/>
</linearGradient>
<linearGradient id="paint2_linear_4655_1828" x1="25.3374" y1="22.2973" x2="9.37458" y2="49.0538" gradientUnits="userSpaceOnUse">
<stop stop-color="#FF3A44"/>
<stop offset="1" stop-color="#C31162"/>
</linearGradient>
<linearGradient id="paint3_linear_4655_1828" x1="7.87756" y1="0.178805" x2="14.9992" y2="12.1287" gradientUnits="userSpaceOnUse">
<stop stop-color="#32A071"/>
<stop offset="0.0685" stop-color="#2DA771"/>
<stop offset="0.4762" stop-color="#15CF74"/>
<stop offset="0.8009" stop-color="#06E775"/>
<stop offset="1" stop-color="#00F076"/>
</linearGradient>
<clipPath id="clip0_4655_1828">
<rect width="135" height="40" fill="white" transform="translate(0.612793)"/>
</clipPath>
</defs>
</svg>
