<svg width="57" height="56" viewBox="0 0 57 56" fill="none" xmlns="http://www.w3.org/2000/svg">
<rect width="56" height="56" transform="translate(0.94873)" fill="#FCF8F7"/>
<path d="M43.065 30.9175C42.6928 30.9175 42.3357 31.0654 42.0725 31.3286C41.8092 31.5919 41.6613 31.9489 41.6613 32.3212V52.7998H46.2608C50.7507 52.7998 53.0007 49.166 53.0007 44.1385V30.9175H43.065Z" fill="#E9A0A7"/>
<path d="M48.6711 8C44.6889 8 42.1701 14.9689 40.1989 20.554L33.1604 40.5348C32.2444 43.1431 31 46.8665 31 48.768C31 51.0379 32.3639 52.8 35.5995 52.8H41.6624V32.3214C41.6624 31.9491 41.8103 31.5921 42.0735 31.3288C42.3368 31.0656 42.6938 30.9177 43.0661 30.9177H53.0217V15.9844C53.0217 11.2754 52.056 8 48.6711 8Z" fill="#FDD5A9"/>
<g clip-path="url(#clip0_4655_1742)">
<path d="M26.125 13.1562C26.0391 13.2422 24.6016 14.7891 22.9453 16.5937L19.9297 19.875H15.8359C11.9297 19.875 11.7422 19.8828 11.5703 20.0234L11.3828 20.1719L11.3594 30.9609L11.3438 41.75H10.3281C9.41406 41.75 9.29688 41.7656 9.15625 41.9062C9.05469 42.0078 9 42.1641 9 42.375C9 42.5859 9.05469 42.7422 9.15625 42.8437C9.3125 43 9.41406 43 29 43C48.5859 43 48.6875 43 48.8438 42.8437C49.0547 42.6328 49.0547 42.1172 48.8438 41.9062C48.6953 41.7578 48.5859 41.75 47.2812 41.75H45.875V41.3984C45.875 41.0547 45.8828 41.0469 46.2656 40.8828C46.8047 40.6484 47.3203 40.0625 47.4922 39.4922C47.6016 39.1094 47.6094 38.9453 47.5234 38.2109C47.2969 36.1406 46.9375 34.5547 46.4609 33.5859C46.0781 32.8047 45.8047 32.5312 45.3828 32.5312C44.4531 32.5312 43.7578 34.1641 43.2969 37.4531C43.1094 38.75 43.1016 39.1172 43.2734 39.6094C43.4297 40.0859 44.1406 40.8203 44.5469 40.9375C44.8047 41.0078 44.8203 41.0312 44.8438 41.3828L44.8672 41.75H42.7188H40.5625V36.5156C40.5625 33.6328 40.5781 31.2812 40.5938 31.2812C40.6172 31.2812 41.0781 31.8047 41.6172 32.4453C42.6719 33.6953 42.7969 33.7812 43.2422 33.5547C43.5156 33.4141 43.6562 33.125 43.5859 32.8359C43.5391 32.6641 27.2734 13.3203 26.9844 13.0937C26.7891 12.9453 26.3203 12.9766 26.125 13.1562ZM32.5156 21.6719C35.625 25.3437 38.3359 28.5547 38.5547 28.7969L38.9375 29.25H31.8594H24.7812V24.7344V20.2109L24.6016 20.0469C24.4375 19.8906 24.3281 19.875 23.0859 19.8594L21.7422 19.8359L24.1406 17.2422L26.5391 14.6484L26.7031 14.8203C26.7969 14.9141 29.4141 18 32.5156 21.6719ZM23.5312 31.4375V41.75H22.9453H22.3594V32.8672V23.9844L22.1875 23.8047L22.0234 23.625H18.9844C16.0547 23.625 15.9453 23.6328 15.7969 23.7812C15.6406 23.9375 15.6406 24.0391 15.6406 32.8437V41.75H14.1562H12.6719V31.4375V21.125H18.1016H23.5312V31.4375ZM21.1094 30.5V36.125H19H16.8906V30.5V24.875H19H21.1094V30.5ZM29.625 36.125V41.75H27.2031H24.7812V36.125V30.5H27.2031H29.625V36.125ZM39.2344 36.125V41.75H35.0547H30.875V36.125V30.5H35.0547H39.2344V36.125ZM45.5469 34C45.9297 34.8906 46.4062 37.1094 46.4766 38.3516C46.5234 39.2266 46.4531 39.4844 46.0547 39.7969L45.8359 39.9687L45.7891 39.4922C45.7344 38.9297 45.6328 38.7812 45.2891 38.7812C44.9531 38.7812 44.8438 38.9297 44.7891 39.4922L44.7422 39.9609L44.5703 39.7969C44.0859 39.3516 44.0312 38.7266 44.3125 37.1016C44.5859 35.5078 45.1328 33.625 45.3281 33.625C45.3594 33.625 45.4609 33.7969 45.5469 34ZM21.1094 39.5625V41.75H19H16.8906V39.5625V37.375H19H21.1094V39.5625Z" fill="#151515"/>
</g>
<defs>
<clipPath id="clip0_4655_1742">
<rect width="40" height="40" fill="white" transform="translate(9 8)"/>
</clipPath>
</defs>
</svg>
