<svg width="57" height="56" viewBox="0 0 57 56" fill="none" xmlns="http://www.w3.org/2000/svg">
<rect width="56" height="56" transform="translate(0.94873)" fill="#FCF8F7"/>
<path d="M52.959 17H46.3069V34.9608C46.3069 41.7904 43.2765 46.7277 37.2378 46.7277H31.0513V52.9808C31.0493 53.4833 31.2465 53.9661 31.5998 54.3235C31.9531 54.6809 32.4335 54.8838 32.9361 54.8877H52.959C53.2085 54.8867 53.4553 54.8366 53.6854 54.7403C53.9155 54.6439 54.1244 54.5032 54.3001 54.3261C54.4758 54.149 54.6149 53.9391 54.7094 53.7083C54.804 53.4774 54.8522 53.2302 54.8512 52.9808V18.907C54.8532 18.6572 54.8057 18.4096 54.7114 18.1783C54.6172 17.947 54.4782 17.7367 54.3023 17.5594C54.1264 17.3821 53.9171 17.2414 53.6866 17.1454C53.456 17.0494 53.2088 17 52.959 17Z" fill="#FDD5A9"/>
<path d="M32.9361 17C32.687 17.001 32.4405 17.0511 32.2108 17.1476C31.9812 17.244 31.7728 17.3849 31.5977 17.562C31.4226 17.7392 31.2842 17.9492 31.1904 18.18C31.0966 18.4108 31.0494 18.6578 31.0513 18.907V46.7203H37.2674C43.3061 46.7203 46.3365 41.783 46.3365 34.9534V17H32.9361Z" fill="#E9A0A7"/>
<g clip-path="url(#clip0_4655_1751)">
<path d="M37.9062 8.10155C37.8438 8.15623 37.5781 8.42967 37.3281 8.70311C37.0703 8.98436 36.6719 9.41405 36.4375 9.66405L36.0156 10.1094L34.7812 9.71873C32.7891 9.08592 32.7969 9.08592 32.375 11.0469L32.0781 12.414L30.7891 12.6953C29.4297 12.9922 29.2109 13.0703 29.0781 13.3125C28.9375 13.5703 28.9922 13.8828 29.3906 15.125L29.7812 16.3437L29.3359 16.7656C29.0859 17 28.6484 17.3984 28.3672 17.6562C27.7891 18.1719 27.6562 18.3594 27.6562 18.664C27.6562 18.9609 27.7891 19.1562 28.3281 19.6406C28.5938 19.875 29.0312 20.2734 29.2969 20.5156L29.7891 20.9687L29.3906 22.1953C28.9922 23.4453 28.9375 23.7578 29.0781 24.0156C29.2109 24.2578 29.4297 24.3359 30.7969 24.6328L32.0781 24.914L32.3594 26.2031C32.6641 27.5703 32.7422 27.789 32.9844 27.9219C33.2422 28.0547 33.5156 28.0078 34.7969 27.6015C35.4844 27.3828 36.0547 27.2187 36.0625 27.2344C36.0703 27.2422 36.5156 27.7265 37.0391 28.289C37.9844 29.3125 38 29.3281 38.3359 29.3281C38.6953 29.3281 38.6406 29.3828 40.5234 27.3125C40.6016 27.2265 40.8359 27.2734 41.8672 27.6015C42.5547 27.8203 43.2344 28 43.3672 28C43.8828 28 43.9922 27.75 44.4375 25.5781L44.5781 24.9062L45.8281 24.6484C47.9375 24.2031 47.9219 24.2344 47.2734 22.2031C47.0547 21.5156 46.9062 20.9297 46.9453 20.8984C46.9766 20.8672 47.4531 20.4219 48.0078 19.9219C48.9766 19.0234 49 18.9922 49 18.6719C49 18.3125 48.8984 18.1953 47.4141 16.8515L46.875 16.3672L47.2734 15.1094C47.6875 13.8047 47.7266 13.5625 47.5938 13.3125C47.4688 13.0703 47.2578 13 45.8828 12.6953L44.5859 12.414L44.4609 11.8281C44.3828 11.5078 44.25 10.8906 44.1562 10.4687C43.9531 9.57811 43.7812 9.32811 43.3516 9.32811C43.2109 9.32811 42.5391 9.5078 41.8594 9.72655L40.625 10.1172L40.1484 9.58592C38.8125 8.10936 38.6875 7.99998 38.3438 7.99998C38.1641 7.99998 37.9688 8.04686 37.9062 8.10155ZM39.6719 11.1953C40.0234 11.5703 40.1016 11.6172 40.375 11.6094C40.5391 11.6094 41.1562 11.4531 41.7422 11.2578L42.8047 10.914L43.0625 12.1172C43.2578 13.0469 43.3594 13.3515 43.5 13.4922C43.6406 13.6328 43.9453 13.7265 44.8281 13.9219C45.4609 14.0547 45.9922 14.1875 46.0156 14.2109C46.0391 14.2344 45.8906 14.7734 45.6875 15.4062C45.4375 16.2109 45.3359 16.6328 45.3672 16.7734C45.3984 16.8984 45.7734 17.3047 46.3125 17.7969C46.8047 18.25 47.2031 18.6484 47.1875 18.6797C47.1797 18.7109 46.7812 19.1015 46.2969 19.539C45.7656 20.0312 45.4062 20.4219 45.375 20.5469C45.3359 20.6875 45.4375 21.1172 45.6875 21.9219C45.8906 22.5625 46.0391 23.1015 46.0234 23.1172C46 23.1328 45.4453 23.2656 44.7812 23.414C43.8828 23.6172 43.5469 23.7265 43.4453 23.8437C43.375 23.9297 43.2031 24.5469 43.0625 25.2109L42.8047 26.414L41.6328 26.0312C40.8281 25.7734 40.3906 25.664 40.2422 25.6953C40.0547 25.7344 39.3984 26.3984 38.4141 27.5156C38.3516 27.5859 38.1484 27.414 37.5547 26.7422C36.4766 25.539 36.5312 25.5547 35.0859 26.0156C34.4453 26.2187 33.9062 26.3672 33.875 26.3437C33.8516 26.3203 33.7266 25.8281 33.6016 25.25C33.3438 24.0703 33.2656 23.8515 33.0781 23.7344C33 23.6875 32.4141 23.5312 31.7656 23.3906L30.5938 23.1328L30.9688 21.9297C31.3203 20.8125 31.3359 20.7109 31.2344 20.4765C31.1797 20.3359 30.7578 19.8906 30.2578 19.4531C29.7812 19.0234 29.3906 18.6719 29.3906 18.664C29.3906 18.6562 29.7812 18.3047 30.2578 17.875C30.7578 17.4375 31.1797 16.9922 31.2344 16.8515C31.3359 16.6172 31.3203 16.5156 30.9688 15.3984L30.5938 14.1953L31.7266 13.9375C32.3438 13.7969 32.9375 13.6484 33.0312 13.6094C33.2656 13.5 33.3359 13.3125 33.6016 12.0781C33.7266 11.5 33.8516 11.0078 33.8828 10.9844C33.9062 10.9609 34.2891 11.0547 34.7266 11.2031C36.0781 11.6406 36.2578 11.6797 36.5312 11.5625C36.6641 11.5078 37.125 11.0703 37.5469 10.5937L38.3203 9.72655L38.7969 10.25C39.0547 10.539 39.4531 10.9609 39.6719 11.1953Z" fill="#151515"/>
<path d="M34.2812 14.7578C33.8359 14.9141 33.4375 15.2734 33.1953 15.7422C32.9922 16.125 32.9765 16.2188 33 16.75C33.039 17.3906 33.164 17.6953 33.539 18.0703C35.039 19.5703 37.5234 18.1172 36.9375 16.0938C36.6172 14.9844 35.375 14.3672 34.2812 14.7578ZM35.4062 16.2422C35.8594 16.7266 35.3281 17.5156 34.7578 17.2109C34.3515 16.9922 34.2656 16.5547 34.5859 16.2422C34.8359 15.9844 35.164 15.9844 35.4062 16.2422Z" fill="#151515"/>
<path d="M37.7891 18.1562L34.4297 21.5156L34.9375 22.0234L35.4453 22.5312L38.8203 19.1562L42.2031 15.7734L41.7188 15.2891C41.4531 15.0156 41.2109 14.7969 41.1875 14.7969C41.1641 14.7969 39.6406 16.3047 37.7891 18.1562Z" fill="#151515"/>
<path d="M41.1094 18.6953C40.5547 18.875 40.086 19.2734 39.8125 19.7969C39.6016 20.1953 39.6094 21.1406 39.836 21.5547C40.0703 22 40.3828 22.289 40.8594 22.5156C41.2032 22.6719 41.3672 22.6953 41.7578 22.6719C42.8672 22.6015 43.6016 21.8672 43.6719 20.7578C43.7266 19.9609 43.2891 19.2187 42.5547 18.8437C42.2188 18.6719 41.4297 18.5859 41.1094 18.6953ZM41.9141 20.125C42.3282 20.3437 42.3985 20.75 42.0782 21.0781C41.8282 21.3203 41.5157 21.3437 41.2891 21.125C41.0625 20.914 41 20.6875 41.1094 20.4219C41.25 20.0859 41.6016 19.9531 41.9141 20.125Z" fill="#151515"/>
<path d="M13.4766 17.4141C11.9062 17.8438 10.9531 19.1719 10.9531 20.9453V21.3594H11.6562H12.3594V20.9453C12.3594 20 12.8047 19.2422 13.5703 18.8906L13.9609 18.7031H20.1562H26.3438V18V17.2969L20.1172 17.3047C15 17.3047 13.8125 17.3281 13.4766 17.4141Z" fill="#151515"/>
<path d="M14.4688 20.0781C14 20.2812 13.7656 20.5781 13.6484 21.1016L13.5938 21.3594H20.6328H27.6719V20.6562V19.9531H21.2109C15.625 19.9609 14.7031 19.9766 14.4688 20.0781Z" fill="#151515"/>
<path d="M9.39844 22.6953C9 22.8516 9.00781 22.8359 9 26.0156V28.9922L9.17969 29.1562L9.35938 29.3281H14.6719H19.9922L20.1797 29.125L20.3672 28.9219L20.3906 26.2031C20.4062 24.3828 20.3828 23.3672 20.3281 23.1562C20.1797 22.5937 20.3672 22.6094 14.6484 22.6172C11.5938 22.6172 9.50781 22.6484 9.39844 22.6953ZM18.9219 25.9687V27.9219H14.6641H10.4062V25.9687V24.0156H14.6641H18.9219V25.9687Z" fill="#151515"/>
<path d="M11.6562 25.9688V26.6719H12.3594H13.0625V25.9688V25.2656H12.3594H11.6562V25.9688Z" fill="#151515"/>
<path d="M14.3125 25.9688V26.6719H15.9922H17.6719V25.9688V25.2656H15.9922H14.3125V25.9688Z" fill="#151515"/>
<path d="M28.7422 25.5938L27.9844 26.3984L28.4688 26.8828C28.7422 27.1562 28.9766 27.375 29 27.375C29.0234 27.375 29.3672 27.0234 29.7734 26.5859L30.5078 25.7969L30 25.2891L29.4922 24.7812L28.7422 25.5938Z" fill="#151515"/>
<path d="M23.8594 27.7578C22.75 28.8281 21.2578 30.3047 20.5234 31.0469C19.2969 32.2812 19.1172 32.4219 18.1875 32.9844C16.8828 33.7656 16.5234 34.1875 16.3515 35.1562C16.1875 36.0625 16.4765 36.8828 17.1797 37.5312C17.4922 37.8203 17.7344 37.9609 18.0703 38.0625L18.539 38.1953L19.2656 39.6797C19.8437 40.8516 20.039 41.1875 20.2031 41.2656C20.3437 41.3281 20.9062 41.3594 21.9375 41.3594C23.4531 41.3594 23.4609 41.3594 23.6484 41.1641C23.9687 40.8438 23.914 40.5625 23.1719 38.8438C22.7969 37.9922 22.5078 37.2812 22.5234 37.2656C22.539 37.2578 24.1172 37.2734 26.0312 37.3125C27.9453 37.3438 29.6172 37.3594 29.75 37.3359C30.1094 37.2734 30.3281 37.0312 30.3281 36.6875C30.3281 36.2891 26.8515 26.2188 26.6406 25.9844C26.5234 25.8672 26.3828 25.8125 26.164 25.8125C25.875 25.8125 25.7812 25.8906 23.8594 27.7578ZM27.0937 31.375C27.7187 33.1953 28.3281 34.9609 28.4531 35.3047L28.664 35.9297L26.7422 35.9141C25.6875 35.8984 24.1406 35.8672 23.3125 35.8438L21.8047 35.7969L21.1328 34.4531L20.4609 33.1172L23.1406 30.4766C25.2031 28.4453 25.8359 27.8594 25.8906 27.9531C25.9219 28.0156 26.4687 29.5547 27.0937 31.375ZM19.8594 35.1094L20.4062 36.2031L19.8828 36.4609C19.5859 36.6094 19.25 36.75 19.1328 36.7812C18.8047 36.8594 18.3594 36.7031 18.0703 36.4062C17.8594 36.1875 17.7969 36.0547 17.7656 35.7266C17.7109 35.1797 17.8906 34.875 18.4453 34.5156C18.6875 34.3594 18.9531 34.1797 19.039 34.125C19.125 34.0703 19.2187 34.0234 19.25 34.0234C19.289 34.0156 19.5547 34.5078 19.8594 35.1094ZM21.5547 38.7109C21.8203 39.3281 22.0469 39.8594 22.0469 39.8906C22.0469 39.9297 21.8125 39.9531 21.5156 39.9531H20.9922L20.5 38.9766L20.0156 38L20.4687 37.7734C20.7109 37.6406 20.9453 37.5469 20.9844 37.5625C21.0234 37.5703 21.2812 38.0859 21.5547 38.7109Z" fill="#151515"/>
<path d="M45.6406 28.3125V30.6562H45.0156H44.3906V29.9922V29.3281H43.6875H42.9844V29.9922V30.6562H39.1719H35.3516L35.1641 30.8594L34.9766 31.0625V35.3516V39.6328L35.1562 39.8125L35.3359 39.9922L41.8359 40.0156C45.4062 40.0234 48.4141 40.0156 48.5156 39.9922C48.6094 39.9688 48.7578 39.8828 48.8438 39.7969C48.9922 39.6484 49 39.5156 49 35.3203V30.9922L48.8203 30.8281C48.6562 30.6719 48.5547 30.6562 47.8438 30.6562H47.0469V28.3125V25.9688H46.3438H45.6406V28.3125ZM47.5938 35.3438V38.625H41.9688H36.3438V35.3438V32.0625H41.9688H47.5938V35.3438Z" fill="#151515"/>
<path d="M37.5938 34.0156V34.7188H38.9609H40.3281V34.0156V33.3125H38.9609H37.5938V34.0156Z" fill="#151515"/>
<path d="M41.6562 34.0156V34.7188H44H46.3438V34.0156V33.3125H44H41.6562V34.0156Z" fill="#151515"/>
<path d="M37.5938 36.6719V37.375H41.9688H46.3438V36.6719V35.9688H41.9688H37.5938V36.6719Z" fill="#151515"/>
<path d="M30.875 30.3906C30.336 30.5781 29.8516 30.7578 29.7969 30.7734C29.7266 30.7969 29.7656 30.9766 29.9375 31.4453C30.0625 31.7969 30.1797 32.1016 30.1953 32.1094C30.2266 32.1406 32.336 31.4063 32.4063 31.3438C32.4766 31.2734 32.0235 30.0313 31.9297 30.0391C31.8906 30.0391 31.4141 30.1953 30.875 30.3906Z" fill="#151515"/>
<path d="M10.9531 36.6328V42.6094H10.25C9.50781 42.6094 9.14062 42.7188 9.04688 42.9609C9.02344 43.0312 9 43.7188 9 44.4844C9 45.7266 9.01562 45.9375 9.17188 46.3359C9.39844 46.9531 10.0469 47.6016 10.6641 47.8281L11.1172 48H29H46.8828L47.3359 47.8281C47.9531 47.6016 48.6016 46.9531 48.8281 46.3359C48.9844 45.9297 49 45.7344 49 44.4609C48.9922 42.6406 48.9766 42.6094 47.7578 42.6094H47.0469V41.9453V41.2812H46.3438H45.6406V41.9453V42.6094H45.0156H44.3906V41.9453V41.2812H43.6875H42.9844V41.9453V42.6016L37.7734 42.625L32.5547 42.6484L32.2422 42.8203C31.8359 43.0469 31.7422 43.1328 31.4688 43.5078C31.3359 43.6797 31.1953 43.8438 31.1562 43.875C31.1094 43.9062 30.125 43.9375 28.9766 43.9375C26.8984 43.9375 26.875 43.9375 26.7344 43.7578C26.1875 43.1094 26.0469 42.9688 25.7656 42.8203C25.4453 42.6484 25.4297 42.6484 20.2344 42.625L15.0156 42.6016V36.6328V30.6562H14.3125H13.6094V36.6328V42.6094H12.9844H12.3594V36.6328V30.6562H11.6562H10.9531V36.6328ZM25.2812 44.2812C25.4141 44.4219 25.6328 44.6562 25.7578 44.7969C26.2344 45.3047 26.2266 45.3047 28.8281 45.3281C30.8125 45.3516 31.2578 45.3359 31.5625 45.2344C31.9531 45.1016 32.3438 44.7812 32.5625 44.4141C32.6406 44.2891 32.7812 44.1484 32.8828 44.1016C33.0156 44.0391 35.2812 44.0156 40.3359 44.0156H47.6094L47.5781 44.9062C47.5547 45.875 47.4922 46.0391 47.0156 46.3906L46.8047 46.5547H29H11.1953L10.9766 46.3906C10.5 46.0312 10.4062 45.7891 10.4062 44.8672V44.0156H17.7188H25.0312L25.2812 44.2812Z" fill="#151515"/>
<path d="M31.6562 35.9688V36.6719H32.6719H33.6875V35.9688V35.2656H32.6719H31.6562V35.9688Z" fill="#151515"/>
</g>
<defs>
<clipPath id="clip0_4655_1751">
<rect width="40" height="40" fill="white" transform="translate(9 8)"/>
</clipPath>
</defs>
</svg>
