<svg width="81" height="81" viewBox="0 0 81 81" fill="none" xmlns="http://www.w3.org/2000/svg">
<path d="M51.4174 36.7949C51.056 36.7949 50.7094 36.935 50.4538 37.1845C50.1983 37.4339 50.0547 37.7722 50.0547 38.1249L50.0547 57.5281L54.5198 57.5281C58.8786 57.5281 61.0629 54.0851 61.0629 49.3216L61.0629 36.7949L51.4174 36.7949Z" fill="#F6A0A8"/>
<path d="M57.0774 16.0618C53.4279 16.0618 51.1196 22.5121 49.3131 27.6816L42.8627 46.1755C42.0233 48.5898 40.8828 52.0361 40.8828 53.7961C40.8828 55.8971 42.1328 57.5281 45.098 57.5281L50.6543 57.5281L50.6543 38.5734C50.6543 38.2288 50.7898 37.8983 51.0311 37.6547C51.2723 37.411 51.5996 37.2741 51.9407 37.2741L61.0645 37.2741L61.0645 23.452C61.0645 19.0934 60.1795 16.0618 57.0774 16.0618Z" fill="#FDD5A9"/>
<path d="M36.7119 15.6565C38.4669 13.5851 41.6619 13.5852 43.417 15.6565C44.8851 17.3893 47.2068 18.1437 49.4131 17.6047C52.0504 16.9607 54.6346 18.8388 54.8369 21.5461C55.0062 23.8109 56.4414 25.785 58.543 26.6458C61.0552 27.6747 62.0426 30.7135 60.6152 33.0227C59.4209 34.9544 59.4209 37.3957 60.6152 39.3274C62.0428 41.6366 61.0553 44.6753 58.543 45.7043C56.4413 46.5651 55.0061 48.5401 54.8369 50.8049C54.6344 53.512 52.0503 55.3895 49.4131 54.7454C47.2068 54.2064 44.8851 54.9608 43.417 56.6936C41.6619 58.7651 38.467 58.7651 36.7119 56.6936C35.2439 54.961 32.9228 54.2066 30.7168 54.7454C28.0795 55.3896 25.4945 53.5121 25.292 50.8049C25.1228 48.5401 23.6876 46.5651 21.5859 45.7043C19.0737 44.6752 18.087 41.6366 19.5146 39.3274C20.7089 37.3957 20.709 34.9544 19.5146 33.0227C18.0871 30.7135 19.0737 27.6748 21.5859 26.6458C23.6875 25.785 25.1227 23.8109 25.292 21.5461C25.4943 18.8387 28.0794 16.9605 30.7168 17.6047C32.9229 18.1435 35.2439 17.3892 36.7119 15.6565Z" stroke="#1E1E1E" stroke-width="1.6"/>
<path d="M23.2378 50.0618L16.089 62.4434C15.6722 63.1654 16.2698 64.0504 17.0952 63.9336L23.6284 63.0087C24.1022 62.9416 24.557 63.2195 24.7136 63.6717L26.6889 69.3783C26.9692 70.188 28.0715 70.2933 28.4999 69.5512L34.9025 58.4616" stroke="#1E1E1E" stroke-width="1.6" stroke-linecap="round"/>
<path d="M59.727 50.0618L66.8758 62.4434C67.2927 63.1654 66.695 64.0504 65.8696 63.9336L59.3364 63.0087C58.8627 62.9416 58.4078 63.2195 58.2513 63.6717L56.2759 69.3783C55.9956 70.188 54.8933 70.2933 54.4649 69.5512L48.0623 58.4616" stroke="#1E1E1E" stroke-width="1.6" stroke-linecap="round"/>
<path d="M41.2091 46.578L33.8445 39.6582C32.003 37.8178 30.9876 33.5003 33.8445 31.2148C36.9345 28.7429 40.0973 30.8559 41.082 31.913L42.0635 32.8945" stroke="#1E1E1E" stroke-width="1.6" stroke-linecap="round"/>
<path d="M41.5635 47.0618L49.5813 40.304M49.5813 40.304L50.2687 39.6582C52.1103 37.8178 53.1257 33.5003 50.2687 31.2148C47.1787 28.7429 44.0158 30.8559 43.0311 31.913L40.3141 34.7169C39.6108 35.4428 39.5922 36.5901 40.2717 37.3383C40.9876 38.1266 42.2089 38.18 42.9908 37.4571L44.4748 36.0851C44.7324 35.8469 45.1321 35.8548 45.3801 36.1028L49.5813 40.304Z" stroke="#1E1E1E" stroke-width="1.6" stroke-linecap="round"/>
</svg>
