<svg width="81" height="81" viewBox="0 0 81 81" fill="none" xmlns="http://www.w3.org/2000/svg">
<path d="M61.5798 38.424H39.083V38.3657C44.7946 36.5201 49.0977 32.3918 49.0977 25.7963C49.0977 22.7753 48.1264 19.0938 44.1632 15.5969C42.5807 16.7862 41.2974 18.3283 40.4155 20.1005C39.5336 21.8728 39.0773 23.8264 39.083 25.806V40.7456C39.036 42.4482 39.3307 44.1429 39.9498 45.7296C40.5688 47.3163 41.4997 48.7629 42.6873 49.9837C43.8749 51.2046 45.2952 52.175 46.8642 52.8377C48.4333 53.5003 50.1192 53.8417 51.8224 53.8417C53.5256 53.8417 55.2116 53.5003 56.7806 52.8377C58.3496 52.175 59.7699 51.2046 60.9575 49.9837C62.1451 48.7629 63.076 47.3163 63.6951 45.7296C64.3141 44.1429 64.6089 42.4482 64.5619 40.7456V37.7635C63.6365 38.2233 62.6128 38.45 61.5798 38.424Z" fill="#FDD5A9"/>
<path d="M51.7679 13.0618C49.0186 13.0583 46.3426 13.948 44.1427 15.597C48.1253 19.094 49.0773 22.7754 49.0773 25.7964C49.0773 32.392 44.7741 36.4814 39.0625 38.3659V38.4241H61.5787C62.5888 38.4392 63.5879 38.2127 64.4928 37.7636V25.8061C64.4928 22.4295 63.1528 19.1908 60.767 16.8014C58.3811 14.4119 55.1446 13.0669 51.7679 13.0618Z" fill="#F6A0A8"/>
<path d="M10 61.4822H69.8555" stroke="#1E1E1E" stroke-width="1.6" stroke-linecap="round"/>
<path d="M14.2109 61.4348V29.0305C14.2109 28.4782 14.6587 28.0305 15.2109 28.0305H31.5952C32.1475 28.0305 32.5952 28.4782 32.5952 29.0305V61.3526" stroke="#1E1E1E" stroke-width="1.6" stroke-linecap="round"/>
<path d="M27.2617 27.8662L35.607 18.6186C36.0121 18.1698 36.7196 18.1803 37.1112 18.6408L61.5681 47.3999" stroke="#1E1E1E" stroke-width="1.6" stroke-linecap="round"/>
<path d="M32.8438 42.5574H56.8906" stroke="#1E1E1E" stroke-width="1.6" stroke-linecap="round"/>
<path d="M41.7891 42.7218V60.86M56.4808 42.4753V61.2704" stroke="#1E1E1E" stroke-width="1.6" stroke-linecap="round"/>
<path d="M20.7773 61.3526V34.9397C20.7773 34.3874 21.2251 33.9397 21.7773 33.9397H28.3122C28.8645 33.9397 29.3122 34.3874 29.3122 34.9397V61.3526" stroke="#1E1E1E" stroke-width="1.6" stroke-linecap="round"/>
<path d="M20.7773 53.0632H28.9023" stroke="#1E1E1E" stroke-width="1.6" stroke-linecap="round"/>
<path d="M65.0646 61.2776C65.0254 60.7236 65.0483 57.98 65.0646 56.6775" stroke="#1E1E1E" stroke-width="1.6" stroke-linecap="round"/>
<path d="M65.084 47.7932C65.0944 47.7991 65.1116 47.812 65.1299 47.842C65.6308 48.6629 66.2885 49.8332 66.8184 51.095C67.354 52.3707 67.7295 53.671 67.7295 54.7698C67.7295 56.4782 67.3568 57.3726 66.9219 57.843C66.5015 58.2975 65.8889 58.4993 65.0459 58.4993C64.2029 58.4993 63.5903 58.2975 63.1699 57.843C62.735 57.3726 62.3623 56.4782 62.3623 54.7698C62.3623 53.671 62.7378 52.3707 63.2734 51.095C63.8033 49.8332 64.461 48.6629 64.9619 47.842C64.9802 47.812 64.9974 47.7991 65.0078 47.7932C65.0197 47.7866 65.0329 47.7834 65.0459 47.7834C65.0589 47.7834 65.0721 47.7866 65.084 47.7932Z" stroke="#1E1E1E" stroke-width="1.6"/>
</svg>
